<?xml version="1.0" encoding="utf-8" standalone="no"?>
<!DOCTYPE svg PUBLIC "-//W3C//DTD SVG 1.1//EN"
  "http://www.w3.org/Graphics/SVG/1.1/DTD/svg11.dtd">
<!-- Created with matplotlib (https://matplotlib.org/) -->
<svg height="343.975937pt" version="1.1" viewBox="0 0 614.459687 343.975937" width="614.459687pt" xmlns="http://www.w3.org/2000/svg" xmlns:xlink="http://www.w3.org/1999/xlink">
 <metadata>
  <rdf:RDF xmlns:cc="http://creativecommons.org/ns#" xmlns:dc="http://purl.org/dc/elements/1.1/" xmlns:rdf="http://www.w3.org/1999/02/22-rdf-syntax-ns#">
   <cc:Work>
    <dc:type rdf:resource="http://purl.org/dc/dcmitype/StillImage"/>
    <dc:date>2023-02-22T22:01:59.006324</dc:date>
    <dc:format>image/svg+xml</dc:format>
    <dc:creator>
     <cc:Agent>
      <dc:title>Matplotlib v3.3.4, https://matplotlib.org/</dc:title>
     </cc:Agent>
    </dc:creator>
   </cc:Work>
  </rdf:RDF>
 </metadata>
 <defs>
  <style type="text/css">*{stroke-linecap:butt;stroke-linejoin:round;}</style>
 </defs>
 <g id="figure_1">
  <g id="patch_1">
   <path d="M 0 343.975937 
L 614.459687 343.975937 
L 614.459687 0 
L 0 0 
z
" style="fill:none;"/>
  </g>
  <g id="axes_1">
   <g id="patch_2">
    <path d="M 49.259688 298.677188 
L 607.259688 298.677188 
L 607.259688 26.877187 
L 49.259688 26.877187 
z
" style="fill:#ffffff;"/>
   </g>
   <g id="line2d_1">
    <path clip-path="url(#p507f9ffd37)" d="M 74.623324 284.305573 
L 75.131104 282.288505 
L 75.638885 286.322642 
L 76.146665 264.134887 
L 76.654446 271.194627 
L 77.162226 276.237299 
L 77.670007 276.237299 
L 78.177787 274.22023 
L 78.685568 265.143421 
L 79.701129 277.245833 
L 80.208909 268.169024 
L 80.71669 263.126353 
L 81.22447 277.245833 
L 81.732251 271.194627 
L 82.240031 271.194627 
L 82.747812 268.169024 
L 83.255592 272.203162 
L 83.763373 263.126353 
L 84.271154 262.117818 
L 84.778934 264.134887 
L 85.286715 270.186093 
L 85.794495 274.22023 
L 86.302276 271.194627 
L 86.810056 271.194627 
L 87.317837 275.228764 
L 87.825617 274.22023 
L 88.841178 253.041009 
L 89.348959 273.211696 
L 89.856739 267.16049 
L 90.8723 265.143421 
L 91.380081 265.143421 
L 91.887861 258.083681 
L 92.395642 262.117818 
L 92.903422 251.023941 
L 93.411203 268.169024 
L 93.918983 271.194627 
L 94.426764 265.143421 
L 94.934544 262.117818 
L 95.442325 265.143421 
L 95.950105 257.075147 
L 96.965666 259.092215 
L 97.473447 257.075147 
L 97.981227 259.092215 
L 98.489008 263.126353 
L 98.996788 253.041009 
L 99.504569 259.092215 
L 100.012349 251.023941 
L 100.52013 264.134887 
L 101.535691 260.10075 
L 102.551252 250.015406 
L 103.059032 250.015406 
L 103.566813 262.117818 
L 104.074593 249.006872 
L 104.582374 256.066612 
L 105.090154 268.169024 
L 105.597935 273.211696 
L 106.105715 252.032475 
L 106.613496 247.998338 
L 107.121276 245.981269 
L 107.629057 249.006872 
L 108.136837 247.998338 
L 108.644618 255.058078 
L 109.152398 240.938598 
L 109.660179 251.023941 
L 110.167959 233.878857 
L 110.67574 225.810583 
L 111.18352 239.930063 
L 111.691301 240.938598 
L 112.199081 242.955666 
L 112.706862 230.853254 
L 113.214642 253.041009 
L 113.722423 235.895926 
L 114.230203 250.015406 
L 114.737984 243.9642 
L 115.245764 240.938598 
L 115.753545 236.90446 
L 116.261326 239.930063 
L 116.769106 218.750842 
L 117.276887 243.9642 
L 117.784667 227.827651 
L 118.292448 244.972735 
L 119.308009 235.895926 
L 119.815789 245.981269 
L 120.32357 234.887392 
L 120.83135 236.90446 
L 121.339131 223.793514 
L 121.846911 229.84472 
L 122.354692 219.759377 
L 122.862472 222.78498 
L 123.370253 250.015406 
L 124.385814 223.793514 
L 124.893594 239.930063 
L 125.401375 241.947132 
L 125.909155 237.912995 
L 126.416936 240.938598 
L 126.924716 240.938598 
L 127.432497 236.90446 
L 127.940277 253.041009 
L 128.448058 220.767911 
L 128.955838 225.810583 
L 129.463619 250.015406 
L 129.971399 237.912995 
L 130.47918 218.750842 
L 130.98696 232.870323 
L 131.494741 228.836186 
L 132.002521 217.742308 
L 132.510302 213.708171 
L 133.018082 219.759377 
L 133.525863 235.895926 
L 134.033643 222.78498 
L 134.541424 235.895926 
L 135.049204 226.819117 
L 135.556985 226.819117 
L 136.064765 225.810583 
L 136.572546 223.793514 
L 137.080326 218.750842 
L 137.588107 221.776445 
L 138.095887 213.708171 
L 138.603668 211.691102 
L 139.111448 208.665499 
L 139.619229 206.648431 
L 140.127009 239.930063 
L 140.63479 215.725239 
L 141.14257 207.656965 
L 141.650351 232.870323 
L 142.158131 215.725239 
L 142.665912 243.9642 
L 143.173692 200.597225 
L 143.681473 220.767911 
L 144.189253 202.614293 
L 144.697034 222.78498 
L 145.204814 227.827651 
L 145.712595 211.691102 
L 146.220375 207.656965 
L 146.728156 196.563087 
L 147.235936 232.870323 
L 147.743717 234.887392 
L 148.251497 208.665499 
L 148.759278 222.78498 
L 149.267059 217.742308 
L 149.774839 207.656965 
L 150.28262 229.84472 
L 151.298181 193.537484 
L 151.805961 211.691102 
L 152.313742 215.725239 
L 152.821522 240.938598 
L 153.329303 211.691102 
L 153.837083 212.699636 
L 154.344864 209.674034 
L 154.852644 218.750842 
L 155.360425 219.759377 
L 155.868205 182.443607 
L 156.375986 210.682568 
L 156.883766 210.682568 
L 157.391547 199.58869 
L 157.899327 217.742308 
L 158.407108 209.674034 
L 158.914888 206.648431 
L 159.422669 196.563087 
L 159.930449 190.511881 
L 160.94601 225.810583 
L 161.453791 215.725239 
L 161.961571 212.699636 
L 162.469352 201.605759 
L 162.977132 194.546019 
L 163.484913 201.605759 
L 163.992693 201.605759 
L 164.500474 178.40947 
L 165.008254 197.571622 
L 165.516035 211.691102 
L 166.023815 176.392401 
L 166.531596 189.503347 
L 167.039376 189.503347 
L 167.547157 207.656965 
L 168.054937 198.580156 
L 168.562718 193.537484 
L 169.070498 190.511881 
L 169.578279 228.836186 
L 170.086059 214.716705 
L 170.59384 183.452141 
L 171.10162 174.375332 
L 171.609401 189.503347 
L 172.117181 186.477744 
L 172.624962 206.648431 
L 173.132742 188.494813 
L 173.640523 212.699636 
L 174.148303 204.631362 
L 174.656084 172.358264 
L 175.163864 178.40947 
L 175.671645 209.674034 
L 176.179425 202.614293 
L 176.687206 182.443607 
L 177.194986 181.435072 
L 177.702767 196.563087 
L 178.210547 217.742308 
L 178.718328 186.477744 
L 179.226108 209.674034 
L 179.733889 175.383867 
L 180.241669 190.511881 
L 180.74945 211.691102 
L 181.25723 199.58869 
L 181.765011 174.375332 
L 182.272792 186.477744 
L 182.780572 221.776445 
L 183.288353 206.648431 
L 183.796133 177.400935 
L 184.303914 215.725239 
L 184.811694 188.494813 
L 185.319475 194.546019 
L 185.827255 196.563087 
L 186.335036 188.494813 
L 186.842816 190.511881 
L 187.350597 174.375332 
L 187.858377 183.452141 
L 188.366158 165.298523 
L 188.873938 195.554553 
L 189.381719 170.341195 
L 189.889499 192.52895 
L 190.39728 159.247317 
L 190.90506 179.418004 
L 191.412841 163.281455 
L 191.920621 180.426538 
L 192.428402 176.392401 
L 192.936182 183.452141 
L 193.443963 173.366798 
L 193.951743 194.546019 
L 194.459524 192.52895 
L 195.475085 153.196111 
L 195.982865 179.418004 
L 196.490646 182.443607 
L 196.998426 206.648431 
L 197.506207 171.349729 
L 198.013987 170.341195 
L 198.521768 152.187577 
L 199.029548 164.289989 
L 199.537329 163.281455 
L 200.045109 174.375332 
L 200.55289 171.349729 
L 201.06067 169.332661 
L 201.568451 155.21318 
L 202.076231 159.247317 
L 202.584012 183.452141 
L 203.091792 148.15344 
L 203.599573 172.358264 
L 204.107353 160.255852 
L 204.615134 164.289989 
L 205.122914 148.15344 
L 205.630695 159.247317 
L 206.138475 177.400935 
L 206.646256 158.238783 
L 207.154036 165.298523 
L 207.661817 162.27292 
L 208.169597 160.255852 
L 208.677378 168.324126 
L 209.185158 150.170508 
L 209.692939 181.435072 
L 210.200719 155.21318 
L 210.7085 179.418004 
L 211.21628 142.102234 
L 211.724061 162.27292 
L 212.231841 172.358264 
L 212.739622 165.298523 
L 213.247402 174.375332 
L 213.755183 178.40947 
L 214.262964 151.179043 
L 214.770744 159.247317 
L 215.278525 182.443607 
L 215.786305 156.221714 
L 216.294086 153.196111 
L 216.801866 144.119303 
L 217.309647 170.341195 
L 217.817427 166.307058 
L 218.832988 185.46921 
L 219.340769 161.264386 
L 219.848549 162.27292 
L 220.35633 167.315592 
L 220.86411 148.15344 
L 221.371891 168.324126 
L 221.879671 161.264386 
L 222.387452 141.0937 
L 222.895232 135.042494 
L 223.403013 147.144905 
L 223.910793 139.076631 
L 224.418574 139.076631 
L 224.926354 146.136371 
L 225.434135 164.289989 
L 225.941915 172.358264 
L 226.449696 149.161974 
L 226.957476 157.230249 
L 227.465257 181.435072 
L 227.973037 169.332661 
L 228.480818 135.042494 
L 228.988598 151.179043 
L 229.496379 173.366798 
L 230.004159 140.085165 
L 230.51194 166.307058 
L 231.01972 173.366798 
L 231.527501 169.332661 
L 232.035281 160.255852 
L 232.543062 172.358264 
L 233.050842 156.221714 
L 234.066403 137.059562 
L 234.574184 128.991288 
L 235.081964 160.255852 
L 235.589745 150.170508 
L 236.097525 181.435072 
L 236.605306 193.537484 
L 237.113086 158.238783 
L 237.620867 157.230249 
L 238.128647 184.460675 
L 238.636428 155.21318 
L 239.144208 133.025425 
L 239.651989 154.204646 
L 240.159769 138.068097 
L 240.66755 146.136371 
L 241.17533 142.102234 
L 241.683111 165.298523 
L 242.190891 156.221714 
L 242.698672 139.076631 
L 243.206452 156.221714 
L 243.714233 182.443607 
L 244.729794 137.059562 
L 245.237574 157.230249 
L 245.745355 154.204646 
L 246.253135 139.076631 
L 246.760916 139.076631 
L 247.268697 143.110768 
L 247.776477 155.21318 
L 248.284258 134.033959 
L 248.792038 149.161974 
L 249.299819 104.786464 
L 249.807599 133.025425 
L 250.31538 182.443607 
L 250.82316 125.965685 
L 251.330941 144.119303 
L 251.838721 137.059562 
L 252.346502 143.110768 
L 252.854282 163.281455 
L 253.362063 129.999822 
L 253.869843 179.418004 
L 254.377624 148.15344 
L 254.885404 127.982753 
L 255.393185 138.068097 
L 255.900965 176.392401 
L 256.408746 124.95715 
L 256.916526 176.392401 
L 257.424307 150.170508 
L 257.932087 173.366798 
L 258.439868 146.136371 
L 258.947648 134.033959 
L 259.455429 136.051028 
L 259.963209 129.999822 
L 260.47099 146.136371 
L 260.97877 140.085165 
L 261.486551 147.144905 
L 261.994331 136.051028 
L 262.502112 129.999822 
L 263.009892 149.161974 
L 263.517673 144.119303 
L 264.025453 154.204646 
L 264.533234 118.905944 
L 265.041014 141.0937 
L 266.056575 125.965685 
L 266.564356 126.974219 
L 267.072136 101.760861 
L 267.579917 135.042494 
L 268.087697 129.999822 
L 268.595478 128.991288 
L 269.103258 102.769395 
L 269.611039 144.119303 
L 270.118819 116.888876 
L 270.6266 107.812067 
L 271.642161 124.95715 
L 272.149941 124.95715 
L 272.657722 109.829136 
L 273.673283 136.051028 
L 274.181063 127.982753 
L 274.688844 115.880341 
L 275.196624 129.999822 
L 275.704405 140.085165 
L 276.719966 140.085165 
L 277.227746 132.016891 
L 277.735527 145.127837 
L 278.243307 111.846204 
L 278.751088 116.888876 
L 279.258868 117.89741 
L 279.766649 111.846204 
L 280.27443 149.161974 
L 280.78221 154.204646 
L 281.289991 128.991288 
L 281.797771 119.914479 
L 282.305552 124.95715 
L 282.813332 124.95715 
L 283.321113 133.025425 
L 283.828893 106.803533 
L 284.844454 125.965685 
L 285.352235 111.846204 
L 285.860015 132.016891 
L 286.367796 125.965685 
L 286.875576 104.786464 
L 287.383357 93.692586 
L 287.891137 126.974219 
L 288.398918 108.820601 
L 288.906698 116.888876 
L 289.414479 121.931547 
L 289.922259 140.085165 
L 290.43004 107.812067 
L 290.93782 108.820601 
L 291.445601 108.820601 
L 291.953381 115.880341 
L 292.461162 83.607243 
L 292.968942 109.829136 
L 293.476723 118.905944 
L 293.984503 117.89741 
L 294.492284 113.863273 
L 295.000064 134.033959 
L 295.507845 137.059562 
L 296.015625 109.829136 
L 296.523406 139.076631 
L 297.031186 129.999822 
L 297.538967 103.77793 
L 298.046747 127.982753 
L 298.554528 106.803533 
L 299.062308 135.042494 
L 299.570089 111.846204 
L 300.077869 110.83767 
L 300.58565 104.786464 
L 301.09343 94.701121 
L 301.601211 129.999822 
L 302.108991 119.914479 
L 303.124552 90.666983 
L 303.632333 149.161974 
L 304.140113 113.863273 
L 304.647894 91.675518 
L 305.663455 113.863273 
L 306.171235 112.854739 
L 306.679016 115.880341 
L 307.186796 127.982753 
L 307.694577 118.905944 
L 308.202357 93.692586 
L 308.710138 116.888876 
L 309.217918 108.820601 
L 309.725699 129.999822 
L 310.233479 112.854739 
L 310.74126 108.820601 
L 311.24904 121.931547 
L 311.756821 121.931547 
L 312.264602 114.871807 
L 312.772382 117.89741 
L 313.280163 97.726724 
L 313.787943 108.820601 
L 314.295724 136.051028 
L 314.803504 105.794998 
L 315.311285 104.786464 
L 315.819065 100.752327 
L 316.834626 131.008356 
L 317.342407 125.965685 
L 317.850187 135.042494 
L 318.357968 84.615777 
L 318.865748 117.89741 
L 319.373529 119.914479 
L 319.881309 119.914479 
L 320.38909 109.829136 
L 320.89687 114.871807 
L 321.404651 125.965685 
L 322.420212 76.547503 
L 322.927992 123.948616 
L 323.435773 93.692586 
L 323.943553 118.905944 
L 324.451334 90.666983 
L 324.959114 123.948616 
L 325.466895 89.658449 
L 325.974675 85.624312 
L 326.482456 104.786464 
L 326.990236 112.854739 
L 327.498017 90.666983 
L 328.005797 96.718189 
L 328.513578 113.863273 
L 329.021358 120.923013 
L 329.529139 93.692586 
L 330.036919 106.803533 
L 330.5447 113.863273 
L 331.05248 104.786464 
L 331.560261 127.982753 
L 332.068041 104.786464 
L 332.575822 123.948616 
L 333.083602 110.83767 
L 333.591383 113.863273 
L 334.099163 117.89741 
L 334.606944 98.735258 
L 335.114724 91.675518 
L 335.622505 107.812067 
L 336.130285 104.786464 
L 336.638066 108.820601 
L 337.145846 84.615777 
L 337.653627 129.999822 
L 338.161407 90.666983 
L 338.669188 89.658449 
L 339.176968 79.573106 
L 339.684749 118.905944 
L 340.192529 98.735258 
L 340.70031 92.684052 
L 341.20809 132.016891 
L 341.715871 99.743792 
L 342.223651 110.83767 
L 342.731432 104.786464 
L 343.239212 131.008356 
L 343.746993 128.991288 
L 344.254773 106.803533 
L 344.762554 116.888876 
L 345.270335 103.77793 
L 345.778115 114.871807 
L 346.285896 99.743792 
L 346.793676 92.684052 
L 347.301457 114.871807 
L 347.809237 100.752327 
L 348.317018 114.871807 
L 348.824798 101.760861 
L 349.332579 123.948616 
L 349.840359 113.863273 
L 350.34814 117.89741 
L 350.85592 140.085165 
L 351.363701 110.83767 
L 351.871481 97.726724 
L 352.379262 89.658449 
L 352.887042 85.624312 
L 353.394823 89.658449 
L 353.902603 95.709655 
L 354.410384 109.829136 
L 354.918164 95.709655 
L 355.425945 77.556037 
L 355.933725 137.059562 
L 356.441506 103.77793 
L 356.949286 134.033959 
L 357.457067 81.590175 
L 357.964847 89.658449 
L 358.472628 99.743792 
L 358.980408 126.974219 
L 359.488189 120.923013 
L 359.995969 92.684052 
L 360.50375 136.051028 
L 361.01153 95.709655 
L 361.519311 104.786464 
L 362.027091 108.820601 
L 362.534872 94.701121 
L 363.042652 139.076631 
L 363.550433 99.743792 
L 364.058213 99.743792 
L 364.565994 76.547503 
L 365.073774 80.58164 
L 365.581555 77.556037 
L 366.089335 84.615777 
L 366.597116 94.701121 
L 367.104896 98.735258 
L 367.612677 77.556037 
L 368.120457 93.692586 
L 368.628238 96.718189 
L 369.136018 85.624312 
L 369.643799 71.504831 
L 370.65936 110.83767 
L 371.16714 90.666983 
L 371.674921 96.718189 
L 372.182701 108.820601 
L 372.690482 87.64138 
L 373.198262 88.649915 
L 373.706043 124.95715 
L 374.213823 88.649915 
L 374.721604 97.726724 
L 375.229384 133.025425 
L 375.737165 108.820601 
L 376.244945 111.846204 
L 376.752726 93.692586 
L 377.260507 105.794998 
L 377.768287 101.760861 
L 378.276068 44.274405 
L 378.783848 105.794998 
L 379.291629 106.803533 
L 379.799409 96.718189 
L 380.30719 95.709655 
L 380.81497 120.923013 
L 381.322751 100.752327 
L 381.830531 98.735258 
L 382.338312 123.948616 
L 382.846092 93.692586 
L 383.353873 133.025425 
L 383.861653 99.743792 
L 384.369434 121.931547 
L 384.877214 87.64138 
L 385.384995 81.590175 
L 386.400556 96.718189 
L 386.908336 89.658449 
L 387.923897 114.871807 
L 388.431678 109.829136 
L 388.939458 87.64138 
L 389.447239 114.871807 
L 389.955019 93.692586 
L 390.4628 104.786464 
L 390.97058 83.607243 
L 391.478361 74.530434 
L 391.986141 106.803533 
L 392.493922 103.77793 
L 393.001702 72.513366 
L 393.509483 127.982753 
L 394.017263 80.58164 
L 395.032824 70.496297 
L 395.540605 83.607243 
L 396.048385 101.760861 
L 396.556166 101.760861 
L 397.063946 94.701121 
L 397.571727 124.95715 
L 398.079507 127.982753 
L 398.587288 87.64138 
L 399.095068 109.829136 
L 399.602849 88.649915 
L 400.110629 111.846204 
L 400.61841 92.684052 
L 401.12619 89.658449 
L 401.633971 92.684052 
L 402.141751 74.530434 
L 402.649532 116.888876 
L 403.157312 99.743792 
L 403.665093 129.999822 
L 404.172873 98.735258 
L 404.680654 87.64138 
L 405.188434 65.453625 
L 405.696215 88.649915 
L 406.203995 92.684052 
L 406.711776 98.735258 
L 407.219556 100.752327 
L 407.727337 87.64138 
L 408.235117 91.675518 
L 408.742898 79.573106 
L 409.250678 89.658449 
L 409.758459 90.666983 
L 410.26624 116.888876 
L 410.77402 91.675518 
L 411.789581 103.77793 
L 412.297362 88.649915 
L 412.805142 93.692586 
L 413.312923 65.453625 
L 413.820703 66.46216 
L 414.328484 93.692586 
L 414.836264 84.615777 
L 415.344045 83.607243 
L 415.851825 74.530434 
L 416.359606 82.598709 
L 416.867386 72.513366 
L 417.375167 76.547503 
L 417.882947 103.77793 
L 418.390728 75.538969 
L 418.898508 76.547503 
L 419.406289 101.760861 
L 419.914069 58.393885 
L 420.42185 87.64138 
L 420.92963 82.598709 
L 421.437411 83.607243 
L 421.945191 97.726724 
L 422.452972 72.513366 
L 422.960752 80.58164 
L 423.468533 68.479228 
L 423.976313 75.538969 
L 424.484094 93.692586 
L 424.991874 103.77793 
L 425.499655 85.624312 
L 426.007435 75.538969 
L 426.515216 74.530434 
L 427.022996 76.547503 
L 427.530777 75.538969 
L 428.038557 90.666983 
L 428.546338 61.419488 
L 429.054118 90.666983 
L 429.561899 82.598709 
L 430.069679 113.863273 
L 430.57746 73.5219 
L 431.08524 87.64138 
L 431.593021 83.607243 
L 432.100801 77.556037 
L 432.608582 87.64138 
L 433.116362 108.820601 
L 434.131923 83.607243 
L 434.639704 79.573106 
L 435.147484 66.46216 
L 435.655265 73.5219 
L 436.163045 66.46216 
L 436.670826 99.743792 
L 437.178606 95.709655 
L 437.686387 111.846204 
L 438.194167 96.718189 
L 438.701948 92.684052 
L 439.209728 83.607243 
L 439.717509 65.453625 
L 440.225289 96.718189 
L 440.73307 62.428022 
L 441.24085 77.556037 
L 441.748631 73.5219 
L 442.256411 79.573106 
L 442.764192 92.684052 
L 443.271973 110.83767 
L 443.779753 88.649915 
L 444.287534 81.590175 
L 444.795314 91.675518 
L 445.303095 69.487763 
L 445.810875 79.573106 
L 446.318656 77.556037 
L 446.826436 84.615777 
L 447.334217 83.607243 
L 447.841997 54.359748 
L 448.349778 98.735258 
L 448.857558 59.402419 
L 449.365339 83.607243 
L 449.873119 65.453625 
L 450.3809 77.556037 
L 450.88868 93.692586 
L 451.396461 66.46216 
L 451.904241 104.786464 
L 452.412022 68.479228 
L 452.919802 58.393885 
L 453.427583 81.590175 
L 453.935363 65.453625 
L 454.443144 72.513366 
L 454.950924 77.556037 
L 455.458705 80.58164 
L 455.966485 62.428022 
L 456.474266 63.436557 
L 456.982046 81.590175 
L 457.489827 69.487763 
L 457.997607 71.504831 
L 458.505388 53.351213 
L 459.013168 82.598709 
L 459.520949 85.624312 
L 460.028729 59.402419 
L 460.53651 76.547503 
L 461.04429 75.538969 
L 461.552071 67.470694 
L 462.059851 88.649915 
L 462.567632 89.658449 
L 463.075412 63.436557 
L 463.583193 73.5219 
L 464.090973 96.718189 
L 464.598754 97.726724 
L 465.106534 69.487763 
L 465.614315 101.760861 
L 466.122095 83.607243 
L 466.629876 86.632846 
L 467.137656 84.615777 
L 467.645437 76.547503 
L 468.153217 102.769395 
L 469.168778 65.453625 
L 469.676559 64.445091 
L 470.184339 49.317076 
L 470.69212 88.649915 
L 471.1999 94.701121 
L 471.707681 78.564572 
L 472.215461 58.393885 
L 472.723242 60.410954 
L 473.231022 64.445091 
L 473.738803 71.504831 
L 474.246583 53.351213 
L 474.754364 91.675518 
L 475.262145 71.504831 
L 475.769925 81.590175 
L 476.277706 69.487763 
L 476.785486 63.436557 
L 477.293267 80.58164 
L 477.801047 47.300008 
L 478.308828 82.598709 
L 478.816608 64.445091 
L 479.324389 65.453625 
L 479.832169 86.632846 
L 480.84773 70.496297 
L 481.355511 67.470694 
L 481.863291 111.846204 
L 482.371072 83.607243 
L 483.386633 49.317076 
L 483.894413 60.410954 
L 484.402194 83.607243 
L 484.909974 100.752327 
L 485.417755 66.46216 
L 485.925535 67.470694 
L 486.433316 95.709655 
L 486.941096 71.504831 
L 487.448877 100.752327 
L 487.956657 97.726724 
L 488.464438 58.393885 
L 488.972218 70.496297 
L 489.479999 62.428022 
L 489.987779 92.684052 
L 490.49556 78.564572 
L 491.00334 56.376816 
L 491.511121 52.342679 
L 492.018901 80.58164 
L 492.526682 76.547503 
L 493.034462 79.573106 
L 493.542243 80.58164 
L 494.050023 68.479228 
L 494.557804 40.240267 
L 495.065584 69.487763 
L 495.573365 82.598709 
L 496.081145 98.735258 
L 496.588926 61.419488 
L 497.096706 54.359748 
L 497.604487 109.829136 
L 498.112267 62.428022 
L 498.620048 73.5219 
L 499.127828 92.684052 
L 499.635609 93.692586 
L 500.143389 75.538969 
L 500.65117 109.829136 
L 501.15895 68.479228 
L 501.666731 75.538969 
L 502.174511 64.445091 
L 502.682292 69.487763 
L 503.190072 113.863273 
L 503.697853 73.5219 
L 504.205633 80.58164 
L 504.713414 63.436557 
L 505.221194 74.530434 
L 505.728975 60.410954 
L 506.236755 70.496297 
L 506.744536 94.701121 
L 507.252316 63.436557 
L 507.760097 87.64138 
L 508.267878 89.658449 
L 508.775658 72.513366 
L 509.283439 70.496297 
L 509.791219 81.590175 
L 510.299 77.556037 
L 510.80678 68.479228 
L 511.314561 55.368282 
L 511.822341 82.598709 
L 512.330122 66.46216 
L 512.837902 71.504831 
L 513.345683 64.445091 
L 513.853463 92.684052 
L 514.361244 54.359748 
L 514.869024 95.709655 
L 515.376805 78.564572 
L 516.392366 72.513366 
L 516.900146 82.598709 
L 517.407927 83.607243 
L 517.915707 75.538969 
L 518.423488 82.598709 
L 518.931268 80.58164 
L 519.439049 91.675518 
L 519.946829 59.402419 
L 520.96239 93.692586 
L 521.470171 82.598709 
L 521.977951 94.701121 
L 522.485732 100.752327 
L 522.993512 58.393885 
L 523.501293 114.871807 
L 524.516854 85.624312 
L 525.024634 74.530434 
L 525.532415 70.496297 
L 526.040195 84.615777 
L 526.547976 76.547503 
L 527.055756 92.684052 
L 527.563537 82.598709 
L 528.071317 65.453625 
L 528.579098 99.743792 
L 529.086878 76.547503 
L 529.594659 107.812067 
L 530.102439 75.538969 
L 530.61022 82.598709 
L 531.118 76.547503 
L 531.625781 76.547503 
L 532.133561 78.564572 
L 532.641342 88.649915 
L 533.149122 90.666983 
L 533.656903 53.351213 
L 534.164683 80.58164 
L 534.672464 71.504831 
L 535.180244 96.718189 
L 535.688025 70.496297 
L 536.195805 98.735258 
L 536.703586 94.701121 
L 537.211366 58.393885 
L 537.719147 64.445091 
L 539.242488 73.5219 
L 539.750269 70.496297 
L 540.258049 77.556037 
L 540.76583 53.351213 
L 541.273611 71.504831 
L 541.781391 39.231733 
L 542.289172 85.624312 
L 542.796952 90.666983 
L 543.304733 52.342679 
L 543.812513 76.547503 
L 544.320294 94.701121 
L 544.828074 78.564572 
L 545.335855 90.666983 
L 545.843635 107.812067 
L 546.351416 112.854739 
L 546.859196 93.692586 
L 547.366977 55.368282 
L 547.874757 51.334145 
L 548.382538 77.556037 
L 548.890318 67.470694 
L 549.398099 99.743792 
L 550.41366 56.376816 
L 550.92144 110.83767 
L 551.429221 96.718189 
L 551.937001 42.257336 
L 552.444782 84.615777 
L 552.952562 53.351213 
L 553.460343 91.675518 
L 553.968123 55.368282 
L 554.475904 63.436557 
L 554.983684 98.735258 
L 555.491465 72.513366 
L 555.999245 76.547503 
L 556.507026 55.368282 
L 557.014806 71.504831 
L 557.522587 83.607243 
L 558.030367 55.368282 
L 558.538148 102.769395 
L 559.045928 70.496297 
L 559.553709 74.530434 
L 560.061489 91.675518 
L 560.56927 76.547503 
L 561.07705 65.453625 
L 561.584831 84.615777 
L 562.092611 63.436557 
L 562.600392 74.530434 
L 563.108172 52.342679 
L 563.615953 45.282939 
L 564.123733 74.530434 
L 564.631514 59.402419 
L 565.139294 77.556037 
L 565.647075 91.675518 
L 566.154855 73.5219 
L 566.662636 41.248802 
L 567.170416 65.453625 
L 567.678197 72.513366 
L 568.185977 69.487763 
L 568.693758 95.709655 
L 569.201538 83.607243 
L 569.709319 83.607243 
L 570.217099 77.556037 
L 570.72488 73.5219 
L 571.23266 83.607243 
L 571.740441 46.291473 
L 572.248221 75.538969 
L 572.756002 74.530434 
L 573.263783 60.410954 
L 573.771563 39.231733 
L 574.279344 74.530434 
L 574.787124 61.419488 
L 575.294905 78.564572 
L 575.802685 60.410954 
L 576.310466 98.735258 
L 576.818246 80.58164 
L 577.326027 81.590175 
L 577.833807 118.905944 
L 578.341588 84.615777 
L 578.849368 71.504831 
L 579.357149 83.607243 
L 579.864929 74.530434 
L 580.37271 69.487763 
L 580.88049 48.308542 
L 581.388271 60.410954 
L 581.896051 53.351213 
L 581.896051 53.351213 
" style="fill:none;stroke:#ff7f0e;stroke-linecap:square;stroke-opacity:0.5;stroke-width:1.5;"/>
   </g>
   <g id="matplotlib.axis_1">
    <g id="xtick_1">
     <g id="line2d_2">
      <defs>
       <path d="M 0 0 
L 0 3.5 
" id="ma584f214d0" style="stroke:#000000;stroke-width:0.8;"/>
      </defs>
      <g>
       <use style="stroke:#000000;stroke-width:0.8;" x="74.623324" xlink:href="#ma584f214d0" y="298.677188"/>
      </g>
     </g>
     <g id="text_1">
      <!-- 0 -->
      <g transform="translate(70.487699 315.555156)scale(0.13 -0.13)">
       <defs>
        <path d="M 31.78125 66.40625 
Q 24.171875 66.40625 20.328125 58.90625 
Q 16.5 51.421875 16.5 36.375 
Q 16.5 21.390625 20.328125 13.890625 
Q 24.171875 6.390625 31.78125 6.390625 
Q 39.453125 6.390625 43.28125 13.890625 
Q 47.125 21.390625 47.125 36.375 
Q 47.125 51.421875 43.28125 58.90625 
Q 39.453125 66.40625 31.78125 66.40625 
z
M 31.78125 74.21875 
Q 44.046875 74.21875 50.515625 64.515625 
Q 56.984375 54.828125 56.984375 36.375 
Q 56.984375 17.96875 50.515625 8.265625 
Q 44.046875 -1.421875 31.78125 -1.421875 
Q 19.53125 -1.421875 13.0625 8.265625 
Q 6.59375 17.96875 6.59375 36.375 
Q 6.59375 54.828125 13.0625 64.515625 
Q 19.53125 74.21875 31.78125 74.21875 
z
" id="DejaVuSans-48"/>
       </defs>
       <use xlink:href="#DejaVuSans-48"/>
      </g>
     </g>
    </g>
    <g id="xtick_2">
     <g id="line2d_3">
      <g>
       <use style="stroke:#000000;stroke-width:0.8;" x="176.179425" xlink:href="#ma584f214d0" y="298.677188"/>
      </g>
     </g>
     <g id="text_2">
      <!-- 200 -->
      <g transform="translate(163.77255 315.555156)scale(0.13 -0.13)">
       <defs>
        <path d="M 19.1875 8.296875 
L 53.609375 8.296875 
L 53.609375 0 
L 7.328125 0 
L 7.328125 8.296875 
Q 12.9375 14.109375 22.625 23.890625 
Q 32.328125 33.6875 34.8125 36.53125 
Q 39.546875 41.84375 41.421875 45.53125 
Q 43.3125 49.21875 43.3125 52.78125 
Q 43.3125 58.59375 39.234375 62.25 
Q 35.15625 65.921875 28.609375 65.921875 
Q 23.96875 65.921875 18.8125 64.3125 
Q 13.671875 62.703125 7.8125 59.421875 
L 7.8125 69.390625 
Q 13.765625 71.78125 18.9375 73 
Q 24.125 74.21875 28.421875 74.21875 
Q 39.75 74.21875 46.484375 68.546875 
Q 53.21875 62.890625 53.21875 53.421875 
Q 53.21875 48.921875 51.53125 44.890625 
Q 49.859375 40.875 45.40625 35.40625 
Q 44.1875 33.984375 37.640625 27.21875 
Q 31.109375 20.453125 19.1875 8.296875 
z
" id="DejaVuSans-50"/>
       </defs>
       <use xlink:href="#DejaVuSans-50"/>
       <use x="63.623047" xlink:href="#DejaVuSans-48"/>
       <use x="127.246094" xlink:href="#DejaVuSans-48"/>
      </g>
     </g>
    </g>
    <g id="xtick_3">
     <g id="line2d_4">
      <g>
       <use style="stroke:#000000;stroke-width:0.8;" x="277.735527" xlink:href="#ma584f214d0" y="298.677188"/>
      </g>
     </g>
     <g id="text_3">
      <!-- 400 -->
      <g transform="translate(265.328652 315.555156)scale(0.13 -0.13)">
       <defs>
        <path d="M 37.796875 64.3125 
L 12.890625 25.390625 
L 37.796875 25.390625 
z
M 35.203125 72.90625 
L 47.609375 72.90625 
L 47.609375 25.390625 
L 58.015625 25.390625 
L 58.015625 17.1875 
L 47.609375 17.1875 
L 47.609375 0 
L 37.796875 0 
L 37.796875 17.1875 
L 4.890625 17.1875 
L 4.890625 26.703125 
z
" id="DejaVuSans-52"/>
       </defs>
       <use xlink:href="#DejaVuSans-52"/>
       <use x="63.623047" xlink:href="#DejaVuSans-48"/>
       <use x="127.246094" xlink:href="#DejaVuSans-48"/>
      </g>
     </g>
    </g>
    <g id="xtick_4">
     <g id="line2d_5">
      <g>
       <use style="stroke:#000000;stroke-width:0.8;" x="379.291629" xlink:href="#ma584f214d0" y="298.677188"/>
      </g>
     </g>
     <g id="text_4">
      <!-- 600 -->
      <g transform="translate(366.884754 315.555156)scale(0.13 -0.13)">
       <defs>
        <path d="M 33.015625 40.375 
Q 26.375 40.375 22.484375 35.828125 
Q 18.609375 31.296875 18.609375 23.390625 
Q 18.609375 15.53125 22.484375 10.953125 
Q 26.375 6.390625 33.015625 6.390625 
Q 39.65625 6.390625 43.53125 10.953125 
Q 47.40625 15.53125 47.40625 23.390625 
Q 47.40625 31.296875 43.53125 35.828125 
Q 39.65625 40.375 33.015625 40.375 
z
M 52.59375 71.296875 
L 52.59375 62.3125 
Q 48.875 64.0625 45.09375 64.984375 
Q 41.3125 65.921875 37.59375 65.921875 
Q 27.828125 65.921875 22.671875 59.328125 
Q 17.53125 52.734375 16.796875 39.40625 
Q 19.671875 43.65625 24.015625 45.921875 
Q 28.375 48.1875 33.59375 48.1875 
Q 44.578125 48.1875 50.953125 41.515625 
Q 57.328125 34.859375 57.328125 23.390625 
Q 57.328125 12.15625 50.6875 5.359375 
Q 44.046875 -1.421875 33.015625 -1.421875 
Q 20.359375 -1.421875 13.671875 8.265625 
Q 6.984375 17.96875 6.984375 36.375 
Q 6.984375 53.65625 15.1875 63.9375 
Q 23.390625 74.21875 37.203125 74.21875 
Q 40.921875 74.21875 44.703125 73.484375 
Q 48.484375 72.75 52.59375 71.296875 
z
" id="DejaVuSans-54"/>
       </defs>
       <use xlink:href="#DejaVuSans-54"/>
       <use x="63.623047" xlink:href="#DejaVuSans-48"/>
       <use x="127.246094" xlink:href="#DejaVuSans-48"/>
      </g>
     </g>
    </g>
    <g id="xtick_5">
     <g id="line2d_6">
      <g>
       <use style="stroke:#000000;stroke-width:0.8;" x="480.84773" xlink:href="#ma584f214d0" y="298.677188"/>
      </g>
     </g>
     <g id="text_5">
      <!-- 800 -->
      <g transform="translate(468.440855 315.555156)scale(0.13 -0.13)">
       <defs>
        <path d="M 31.78125 34.625 
Q 24.75 34.625 20.71875 30.859375 
Q 16.703125 27.09375 16.703125 20.515625 
Q 16.703125 13.921875 20.71875 10.15625 
Q 24.75 6.390625 31.78125 6.390625 
Q 38.8125 6.390625 42.859375 10.171875 
Q 46.921875 13.96875 46.921875 20.515625 
Q 46.921875 27.09375 42.890625 30.859375 
Q 38.875 34.625 31.78125 34.625 
z
M 21.921875 38.8125 
Q 15.578125 40.375 12.03125 44.71875 
Q 8.5 49.078125 8.5 55.328125 
Q 8.5 64.0625 14.71875 69.140625 
Q 20.953125 74.21875 31.78125 74.21875 
Q 42.671875 74.21875 48.875 69.140625 
Q 55.078125 64.0625 55.078125 55.328125 
Q 55.078125 49.078125 51.53125 44.71875 
Q 48 40.375 41.703125 38.8125 
Q 48.828125 37.15625 52.796875 32.3125 
Q 56.78125 27.484375 56.78125 20.515625 
Q 56.78125 9.90625 50.3125 4.234375 
Q 43.84375 -1.421875 31.78125 -1.421875 
Q 19.734375 -1.421875 13.25 4.234375 
Q 6.78125 9.90625 6.78125 20.515625 
Q 6.78125 27.484375 10.78125 32.3125 
Q 14.796875 37.15625 21.921875 38.8125 
z
M 18.3125 54.390625 
Q 18.3125 48.734375 21.84375 45.5625 
Q 25.390625 42.390625 31.78125 42.390625 
Q 38.140625 42.390625 41.71875 45.5625 
Q 45.3125 48.734375 45.3125 54.390625 
Q 45.3125 60.0625 41.71875 63.234375 
Q 38.140625 66.40625 31.78125 66.40625 
Q 25.390625 66.40625 21.84375 63.234375 
Q 18.3125 60.0625 18.3125 54.390625 
z
" id="DejaVuSans-56"/>
       </defs>
       <use xlink:href="#DejaVuSans-56"/>
       <use x="63.623047" xlink:href="#DejaVuSans-48"/>
       <use x="127.246094" xlink:href="#DejaVuSans-48"/>
      </g>
     </g>
    </g>
    <g id="xtick_6">
     <g id="line2d_7">
      <g>
       <use style="stroke:#000000;stroke-width:0.8;" x="582.403832" xlink:href="#ma584f214d0" y="298.677188"/>
      </g>
     </g>
     <g id="text_6">
      <!-- 1000 -->
      <g transform="translate(565.861332 315.555156)scale(0.13 -0.13)">
       <defs>
        <path d="M 12.40625 8.296875 
L 28.515625 8.296875 
L 28.515625 63.921875 
L 10.984375 60.40625 
L 10.984375 69.390625 
L 28.421875 72.90625 
L 38.28125 72.90625 
L 38.28125 8.296875 
L 54.390625 8.296875 
L 54.390625 0 
L 12.40625 0 
z
" id="DejaVuSans-49"/>
       </defs>
       <use xlink:href="#DejaVuSans-49"/>
       <use x="63.623047" xlink:href="#DejaVuSans-48"/>
       <use x="127.246094" xlink:href="#DejaVuSans-48"/>
       <use x="190.869141" xlink:href="#DejaVuSans-48"/>
      </g>
     </g>
    </g>
    <g id="text_7">
     <!-- Episodes -->
     <g transform="translate(294.896406 333.656406)scale(0.15 -0.15)">
      <defs>
       <path d="M 9.8125 72.90625 
L 55.90625 72.90625 
L 55.90625 64.59375 
L 19.671875 64.59375 
L 19.671875 43.015625 
L 54.390625 43.015625 
L 54.390625 34.71875 
L 19.671875 34.71875 
L 19.671875 8.296875 
L 56.78125 8.296875 
L 56.78125 0 
L 9.8125 0 
z
" id="DejaVuSans-69"/>
       <path d="M 18.109375 8.203125 
L 18.109375 -20.796875 
L 9.078125 -20.796875 
L 9.078125 54.6875 
L 18.109375 54.6875 
L 18.109375 46.390625 
Q 20.953125 51.265625 25.265625 53.625 
Q 29.59375 56 35.59375 56 
Q 45.5625 56 51.78125 48.09375 
Q 58.015625 40.1875 58.015625 27.296875 
Q 58.015625 14.40625 51.78125 6.484375 
Q 45.5625 -1.421875 35.59375 -1.421875 
Q 29.59375 -1.421875 25.265625 0.953125 
Q 20.953125 3.328125 18.109375 8.203125 
z
M 48.6875 27.296875 
Q 48.6875 37.203125 44.609375 42.84375 
Q 40.53125 48.484375 33.40625 48.484375 
Q 26.265625 48.484375 22.1875 42.84375 
Q 18.109375 37.203125 18.109375 27.296875 
Q 18.109375 17.390625 22.1875 11.75 
Q 26.265625 6.109375 33.40625 6.109375 
Q 40.53125 6.109375 44.609375 11.75 
Q 48.6875 17.390625 48.6875 27.296875 
z
" id="DejaVuSans-112"/>
       <path d="M 9.421875 54.6875 
L 18.40625 54.6875 
L 18.40625 0 
L 9.421875 0 
z
M 9.421875 75.984375 
L 18.40625 75.984375 
L 18.40625 64.59375 
L 9.421875 64.59375 
z
" id="DejaVuSans-105"/>
       <path d="M 44.28125 53.078125 
L 44.28125 44.578125 
Q 40.484375 46.53125 36.375 47.5 
Q 32.28125 48.484375 27.875 48.484375 
Q 21.1875 48.484375 17.84375 46.4375 
Q 14.5 44.390625 14.5 40.28125 
Q 14.5 37.15625 16.890625 35.375 
Q 19.28125 33.59375 26.515625 31.984375 
L 29.59375 31.296875 
Q 39.15625 29.25 43.1875 25.515625 
Q 47.21875 21.78125 47.21875 15.09375 
Q 47.21875 7.46875 41.1875 3.015625 
Q 35.15625 -1.421875 24.609375 -1.421875 
Q 20.21875 -1.421875 15.453125 -0.5625 
Q 10.6875 0.296875 5.421875 2 
L 5.421875 11.28125 
Q 10.40625 8.6875 15.234375 7.390625 
Q 20.0625 6.109375 24.8125 6.109375 
Q 31.15625 6.109375 34.5625 8.28125 
Q 37.984375 10.453125 37.984375 14.40625 
Q 37.984375 18.0625 35.515625 20.015625 
Q 33.0625 21.96875 24.703125 23.78125 
L 21.578125 24.515625 
Q 13.234375 26.265625 9.515625 29.90625 
Q 5.8125 33.546875 5.8125 39.890625 
Q 5.8125 47.609375 11.28125 51.796875 
Q 16.75 56 26.8125 56 
Q 31.78125 56 36.171875 55.265625 
Q 40.578125 54.546875 44.28125 53.078125 
z
" id="DejaVuSans-115"/>
       <path d="M 30.609375 48.390625 
Q 23.390625 48.390625 19.1875 42.75 
Q 14.984375 37.109375 14.984375 27.296875 
Q 14.984375 17.484375 19.15625 11.84375 
Q 23.34375 6.203125 30.609375 6.203125 
Q 37.796875 6.203125 41.984375 11.859375 
Q 46.1875 17.53125 46.1875 27.296875 
Q 46.1875 37.015625 41.984375 42.703125 
Q 37.796875 48.390625 30.609375 48.390625 
z
M 30.609375 56 
Q 42.328125 56 49.015625 48.375 
Q 55.71875 40.765625 55.71875 27.296875 
Q 55.71875 13.875 49.015625 6.21875 
Q 42.328125 -1.421875 30.609375 -1.421875 
Q 18.84375 -1.421875 12.171875 6.21875 
Q 5.515625 13.875 5.515625 27.296875 
Q 5.515625 40.765625 12.171875 48.375 
Q 18.84375 56 30.609375 56 
z
" id="DejaVuSans-111"/>
       <path d="M 45.40625 46.390625 
L 45.40625 75.984375 
L 54.390625 75.984375 
L 54.390625 0 
L 45.40625 0 
L 45.40625 8.203125 
Q 42.578125 3.328125 38.25 0.953125 
Q 33.9375 -1.421875 27.875 -1.421875 
Q 17.96875 -1.421875 11.734375 6.484375 
Q 5.515625 14.40625 5.515625 27.296875 
Q 5.515625 40.1875 11.734375 48.09375 
Q 17.96875 56 27.875 56 
Q 33.9375 56 38.25 53.625 
Q 42.578125 51.265625 45.40625 46.390625 
z
M 14.796875 27.296875 
Q 14.796875 17.390625 18.875 11.75 
Q 22.953125 6.109375 30.078125 6.109375 
Q 37.203125 6.109375 41.296875 11.75 
Q 45.40625 17.390625 45.40625 27.296875 
Q 45.40625 37.203125 41.296875 42.84375 
Q 37.203125 48.484375 30.078125 48.484375 
Q 22.953125 48.484375 18.875 42.84375 
Q 14.796875 37.203125 14.796875 27.296875 
z
" id="DejaVuSans-100"/>
       <path d="M 56.203125 29.59375 
L 56.203125 25.203125 
L 14.890625 25.203125 
Q 15.484375 15.921875 20.484375 11.0625 
Q 25.484375 6.203125 34.421875 6.203125 
Q 39.59375 6.203125 44.453125 7.46875 
Q 49.3125 8.734375 54.109375 11.28125 
L 54.109375 2.78125 
Q 49.265625 0.734375 44.1875 -0.34375 
Q 39.109375 -1.421875 33.890625 -1.421875 
Q 20.796875 -1.421875 13.15625 6.1875 
Q 5.515625 13.8125 5.515625 26.8125 
Q 5.515625 40.234375 12.765625 48.109375 
Q 20.015625 56 32.328125 56 
Q 43.359375 56 49.78125 48.890625 
Q 56.203125 41.796875 56.203125 29.59375 
z
M 47.21875 32.234375 
Q 47.125 39.59375 43.09375 43.984375 
Q 39.0625 48.390625 32.421875 48.390625 
Q 24.90625 48.390625 20.390625 44.140625 
Q 15.875 39.890625 15.1875 32.171875 
z
" id="DejaVuSans-101"/>
      </defs>
      <use xlink:href="#DejaVuSans-69"/>
      <use x="63.183594" xlink:href="#DejaVuSans-112"/>
      <use x="126.660156" xlink:href="#DejaVuSans-105"/>
      <use x="154.443359" xlink:href="#DejaVuSans-115"/>
      <use x="206.542969" xlink:href="#DejaVuSans-111"/>
      <use x="267.724609" xlink:href="#DejaVuSans-100"/>
      <use x="331.201172" xlink:href="#DejaVuSans-101"/>
      <use x="392.724609" xlink:href="#DejaVuSans-115"/>
     </g>
    </g>
   </g>
   <g id="matplotlib.axis_2">
    <g id="ytick_1">
     <g id="line2d_8">
      <defs>
       <path d="M 0 0 
L -3.5 0 
" id="m616672a7f9" style="stroke:#000000;stroke-width:0.8;"/>
      </defs>
      <g>
       <use style="stroke:#000000;stroke-width:0.8;" x="49.259688" xlink:href="#m616672a7f9" y="274.22023"/>
      </g>
     </g>
     <g id="text_8">
      <!-- 0 -->
      <g transform="translate(33.988438 279.159215)scale(0.13 -0.13)">
       <use xlink:href="#DejaVuSans-48"/>
      </g>
     </g>
    </g>
    <g id="ytick_2">
     <g id="line2d_9">
      <g>
       <use style="stroke:#000000;stroke-width:0.8;" x="49.259688" xlink:href="#m616672a7f9" y="233.878857"/>
      </g>
     </g>
     <g id="text_9">
      <!-- 2 -->
      <g transform="translate(33.988438 238.817842)scale(0.13 -0.13)">
       <use xlink:href="#DejaVuSans-50"/>
      </g>
     </g>
    </g>
    <g id="ytick_3">
     <g id="line2d_10">
      <g>
       <use style="stroke:#000000;stroke-width:0.8;" x="49.259688" xlink:href="#m616672a7f9" y="193.537484"/>
      </g>
     </g>
     <g id="text_10">
      <!-- 4 -->
      <g transform="translate(33.988438 198.476469)scale(0.13 -0.13)">
       <use xlink:href="#DejaVuSans-52"/>
      </g>
     </g>
    </g>
    <g id="ytick_4">
     <g id="line2d_11">
      <g>
       <use style="stroke:#000000;stroke-width:0.8;" x="49.259688" xlink:href="#m616672a7f9" y="153.196111"/>
      </g>
     </g>
     <g id="text_11">
      <!-- 6 -->
      <g transform="translate(33.988438 158.135096)scale(0.13 -0.13)">
       <use xlink:href="#DejaVuSans-54"/>
      </g>
     </g>
    </g>
    <g id="ytick_5">
     <g id="line2d_12">
      <g>
       <use style="stroke:#000000;stroke-width:0.8;" x="49.259688" xlink:href="#m616672a7f9" y="112.854739"/>
      </g>
     </g>
     <g id="text_12">
      <!-- 8 -->
      <g transform="translate(33.988438 117.793723)scale(0.13 -0.13)">
       <use xlink:href="#DejaVuSans-56"/>
      </g>
     </g>
    </g>
    <g id="ytick_6">
     <g id="line2d_13">
      <g>
       <use style="stroke:#000000;stroke-width:0.8;" x="49.259688" xlink:href="#m616672a7f9" y="72.513366"/>
      </g>
     </g>
     <g id="text_13">
      <!-- 10 -->
      <g transform="translate(25.717188 77.45235)scale(0.13 -0.13)">
       <use xlink:href="#DejaVuSans-49"/>
       <use x="63.623047" xlink:href="#DejaVuSans-48"/>
      </g>
     </g>
    </g>
    <g id="ytick_7">
     <g id="line2d_14">
      <g>
       <use style="stroke:#000000;stroke-width:0.8;" x="49.259688" xlink:href="#m616672a7f9" y="32.171993"/>
      </g>
     </g>
     <g id="text_14">
      <!-- 12 -->
      <g transform="translate(25.717188 37.110977)scale(0.13 -0.13)">
       <use xlink:href="#DejaVuSans-49"/>
       <use x="63.623047" xlink:href="#DejaVuSans-50"/>
      </g>
     </g>
    </g>
    <g id="text_15">
     <!-- Score -->
     <g transform="translate(18.597656 183.780703)rotate(-90)scale(0.15 -0.15)">
      <defs>
       <path d="M 53.515625 70.515625 
L 53.515625 60.890625 
Q 47.90625 63.578125 42.921875 64.890625 
Q 37.9375 66.21875 33.296875 66.21875 
Q 25.25 66.21875 20.875 63.09375 
Q 16.5 59.96875 16.5 54.203125 
Q 16.5 49.359375 19.40625 46.890625 
Q 22.3125 44.4375 30.421875 42.921875 
L 36.375 41.703125 
Q 47.40625 39.59375 52.65625 34.296875 
Q 57.90625 29 57.90625 20.125 
Q 57.90625 9.515625 50.796875 4.046875 
Q 43.703125 -1.421875 29.984375 -1.421875 
Q 24.8125 -1.421875 18.96875 -0.25 
Q 13.140625 0.921875 6.890625 3.21875 
L 6.890625 13.375 
Q 12.890625 10.015625 18.65625 8.296875 
Q 24.421875 6.59375 29.984375 6.59375 
Q 38.421875 6.59375 43.015625 9.90625 
Q 47.609375 13.234375 47.609375 19.390625 
Q 47.609375 24.75 44.3125 27.78125 
Q 41.015625 30.8125 33.5 32.328125 
L 27.484375 33.5 
Q 16.453125 35.6875 11.515625 40.375 
Q 6.59375 45.0625 6.59375 53.421875 
Q 6.59375 63.09375 13.40625 68.65625 
Q 20.21875 74.21875 32.171875 74.21875 
Q 37.3125 74.21875 42.625 73.28125 
Q 47.953125 72.359375 53.515625 70.515625 
z
" id="DejaVuSans-83"/>
       <path d="M 48.78125 52.59375 
L 48.78125 44.1875 
Q 44.96875 46.296875 41.140625 47.34375 
Q 37.3125 48.390625 33.40625 48.390625 
Q 24.65625 48.390625 19.8125 42.84375 
Q 14.984375 37.3125 14.984375 27.296875 
Q 14.984375 17.28125 19.8125 11.734375 
Q 24.65625 6.203125 33.40625 6.203125 
Q 37.3125 6.203125 41.140625 7.25 
Q 44.96875 8.296875 48.78125 10.40625 
L 48.78125 2.09375 
Q 45.015625 0.34375 40.984375 -0.53125 
Q 36.96875 -1.421875 32.421875 -1.421875 
Q 20.0625 -1.421875 12.78125 6.34375 
Q 5.515625 14.109375 5.515625 27.296875 
Q 5.515625 40.671875 12.859375 48.328125 
Q 20.21875 56 33.015625 56 
Q 37.15625 56 41.109375 55.140625 
Q 45.0625 54.296875 48.78125 52.59375 
z
" id="DejaVuSans-99"/>
       <path d="M 41.109375 46.296875 
Q 39.59375 47.171875 37.8125 47.578125 
Q 36.03125 48 33.890625 48 
Q 26.265625 48 22.1875 43.046875 
Q 18.109375 38.09375 18.109375 28.8125 
L 18.109375 0 
L 9.078125 0 
L 9.078125 54.6875 
L 18.109375 54.6875 
L 18.109375 46.1875 
Q 20.953125 51.171875 25.484375 53.578125 
Q 30.03125 56 36.53125 56 
Q 37.453125 56 38.578125 55.875 
Q 39.703125 55.765625 41.0625 55.515625 
z
" id="DejaVuSans-114"/>
      </defs>
      <use xlink:href="#DejaVuSans-83"/>
      <use x="63.476562" xlink:href="#DejaVuSans-99"/>
      <use x="118.457031" xlink:href="#DejaVuSans-111"/>
      <use x="179.638672" xlink:href="#DejaVuSans-114"/>
      <use x="218.501953" xlink:href="#DejaVuSans-101"/>
     </g>
    </g>
   </g>
   <g id="line2d_15">
    <path clip-path="url(#p507f9ffd37)" d="M 74.623324 267.362197 
L 75.131104 266.696564 
L 76.146665 265.849395 
L 76.654446 265.768713 
L 77.162226 265.445982 
L 78.177787 264.397106 
L 79.193348 263.832327 
L 80.208909 263.34823 
L 80.71669 263.449084 
L 81.22447 263.227206 
L 82.240031 262.137989 
L 84.271154 260.504163 
L 84.778934 260.282286 
L 85.286715 259.677165 
L 86.302276 258.103852 
L 87.317837 256.933952 
L 87.825617 256.046442 
L 88.841178 255.058078 
L 89.348959 254.997566 
L 91.380081 252.798961 
L 91.887861 251.87111 
L 92.395642 251.58872 
L 92.903422 250.902917 
L 93.411203 250.781893 
L 96.965666 246.788097 
L 97.981227 245.315636 
L 98.489008 245.1341 
L 100.012349 243.621299 
L 100.52013 243.439763 
L 101.535691 242.49174 
L 102.551252 241.745425 
L 103.059032 241.805937 
L 104.074593 240.494842 
L 104.582374 240.515013 
L 105.090154 240.151941 
L 106.105715 238.35675 
L 107.121276 237.287703 
L 108.136837 236.057291 
L 108.644618 235.815243 
L 109.152398 235.169781 
L 109.660179 235.068928 
L 110.167959 234.584831 
L 110.67574 234.443636 
L 111.18352 234.443636 
L 112.199081 233.67715 
L 113.214642 232.910664 
L 113.722423 232.083666 
L 114.230203 231.539058 
L 114.737984 230.671718 
L 115.245764 230.591035 
L 116.261326 229.501818 
L 117.276887 229.300111 
L 117.784667 229.300111 
L 119.815789 227.262872 
L 120.83135 226.435874 
L 121.846911 225.306316 
L 122.354692 225.366828 
L 122.862472 225.669388 
L 123.370253 225.386998 
L 123.878033 224.84239 
L 124.893594 224.156586 
L 125.401375 223.95488 
L 125.909155 223.349759 
L 126.416936 222.462249 
L 127.432497 221.373032 
L 127.940277 221.453714 
L 128.448058 220.626716 
L 128.955838 220.465351 
L 129.463619 220.14262 
L 129.971399 219.517329 
L 130.47918 219.154256 
L 130.98696 218.428111 
L 132.002521 217.621284 
L 132.510302 217.258212 
L 133.018082 217.338894 
L 133.525863 217.137188 
L 134.541424 216.0278 
L 135.049204 215.120119 
L 135.556985 214.716705 
L 136.064765 214.696534 
L 137.080326 214.27295 
L 137.588107 213.930048 
L 138.095887 213.38544 
L 139.111448 212.941685 
L 139.619229 212.336564 
L 140.127009 212.155028 
L 140.63479 211.590249 
L 141.14257 210.803592 
L 141.650351 210.44052 
L 142.158131 209.57318 
L 142.665912 209.411815 
L 143.173692 208.504134 
L 143.681473 208.362939 
L 144.189253 207.757818 
L 144.697034 208.282256 
L 145.204814 208.120891 
L 146.220375 206.487065 
L 146.728156 206.123993 
L 147.235936 205.922286 
L 147.743717 205.397848 
L 148.251497 204.469996 
L 148.759278 204.550679 
L 149.267059 204.187607 
L 149.774839 203.279926 
L 150.28262 202.694976 
L 150.7904 202.291562 
L 151.805961 201.888149 
L 152.313742 201.283028 
L 153.329303 200.435859 
L 153.837083 199.931592 
L 154.344864 199.87108 
L 155.360425 198.620497 
L 155.868205 198.459132 
L 156.375986 198.802034 
L 156.883766 198.075889 
L 157.391547 197.591792 
L 157.899327 198.035547 
L 158.407108 197.81367 
L 158.914888 197.168208 
L 159.422669 197.349744 
L 159.930449 197.188379 
L 160.43823 197.269061 
L 160.94601 197.067354 
L 161.453791 196.321039 
L 161.961571 195.816772 
L 162.469352 195.050286 
L 162.977132 194.687213 
L 163.484913 194.102264 
L 163.992693 193.981239 
L 164.500474 193.355948 
L 165.008254 193.638338 
L 166.023815 192.22639 
L 167.547157 191.520416 
L 168.562718 190.532052 
L 169.578279 190.592564 
L 170.59384 188.212423 
L 171.10162 188.13174 
L 171.609401 188.293106 
L 172.117181 188.636008 
L 172.624962 188.333447 
L 173.640523 186.881158 
L 174.656084 185.085967 
L 175.163864 185.126308 
L 175.671645 184.985113 
L 177.194986 182.766338 
L 177.702767 182.806679 
L 178.718328 180.930805 
L 179.226108 180.406367 
L 179.733889 179.498687 
L 180.74945 178.328787 
L 181.765011 176.815985 
L 182.272792 176.634449 
L 182.780572 176.150353 
L 183.288353 174.919941 
L 183.796133 174.153455 
L 184.811694 172.923043 
L 185.319475 172.25741 
L 185.827255 171.95485 
L 186.335036 170.865633 
L 186.842816 170.341195 
L 187.350597 169.978123 
L 188.366158 169.61505 
L 188.873938 169.877269 
L 189.381719 168.989759 
L 190.39728 168.566175 
L 190.90506 168.505662 
L 191.920621 167.597982 
L 193.443963 167.053373 
L 193.951743 167.295421 
L 194.967304 166.024668 
L 195.982865 165.843132 
L 196.490646 165.621254 
L 196.998426 165.19767 
L 197.506207 163.886575 
L 198.013987 163.160431 
L 198.521768 162.696505 
L 199.029548 162.434286 
L 199.537329 161.930019 
L 200.045109 161.587117 
L 200.55289 161.38541 
L 201.06067 161.405581 
L 201.568451 161.002167 
L 202.076231 161.042508 
L 202.584012 161.486264 
L 204.107353 160.518071 
L 204.615134 160.78029 
L 205.122914 160.296193 
L 206.138475 160.941655 
L 206.646256 160.78029 
L 208.169597 160.840802 
L 208.677378 160.558412 
L 209.185158 159.933121 
L 210.200719 159.085952 
L 210.7085 158.985098 
L 211.21628 159.02544 
L 211.724061 160.054145 
L 212.231841 159.973462 
L 212.739622 159.670902 
L 213.247402 160.054145 
L 213.755183 159.670902 
L 214.262964 158.763221 
L 214.770744 158.823733 
L 215.278525 158.400149 
L 215.786305 157.674004 
L 216.294086 157.391614 
L 217.309647 157.875711 
L 217.817427 157.250419 
L 218.325208 157.048713 
L 218.832988 157.169737 
L 219.848549 156.201544 
L 220.35633 156.10069 
L 221.371891 155.656935 
L 221.879671 155.071985 
L 222.387452 154.708913 
L 222.895232 154.991303 
L 223.910793 155.011473 
L 224.418574 154.32567 
L 224.926354 154.204646 
L 225.434135 154.93079 
L 225.941915 154.164304 
L 226.449696 153.599525 
L 227.465257 153.075087 
L 227.973037 152.712015 
L 228.480818 151.925358 
L 228.988598 152.812868 
L 229.496379 152.752356 
L 230.004159 151.844675 
L 230.51194 151.804334 
L 231.01972 152.006041 
L 231.527501 151.037848 
L 232.035281 151.179043 
L 232.543062 150.977336 
L 233.050842 150.997507 
L 234.066403 150.553752 
L 235.081964 150.553752 
L 236.097525 150.069655 
L 236.605306 149.383852 
L 237.113086 148.234123 
L 237.620867 147.669343 
L 238.128647 147.507978 
L 238.636428 146.70115 
L 239.144208 146.68098 
L 240.159769 146.136371 
L 240.66755 146.035518 
L 241.683111 145.329544 
L 242.190891 144.05879 
L 242.698672 143.635206 
L 243.206452 143.45367 
L 243.714233 142.909061 
L 244.222013 141.315577 
L 245.237574 140.569262 
L 246.253135 138.834583 
L 247.268697 138.269803 
L 248.284258 136.938538 
L 248.792038 136.97888 
L 249.299819 136.555295 
L 249.807599 136.777173 
L 250.31538 136.716661 
L 250.82316 135.869492 
L 251.330941 136.151881 
L 252.854282 136.010687 
L 253.362063 134.981982 
L 253.869843 134.719763 
L 254.377624 133.489351 
L 254.885404 132.763206 
L 255.900965 133.509521 
L 256.408746 132.561499 
L 256.916526 132.460646 
L 257.424307 131.431941 
L 257.932087 130.927674 
L 258.947648 129.334189 
L 259.455429 128.991288 
L 259.963209 128.789581 
L 260.97877 128.144119 
L 261.486551 127.861729 
L 262.502112 126.167392 
L 263.009892 126.10688 
L 263.517673 125.300052 
L 264.533234 124.109982 
L 265.041014 124.533566 
L 266.056575 123.383837 
L 268.595478 121.729841 
L 269.103258 121.507963 
L 269.611039 121.729841 
L 270.118819 121.528134 
L 270.6266 121.931547 
L 271.13438 121.971889 
L 271.642161 122.415644 
L 272.149941 122.516497 
L 272.657722 122.092913 
L 273.165502 122.455985 
L 273.673283 122.153425 
L 274.181063 122.133254 
L 274.688844 121.810523 
L 275.196624 121.70967 
L 275.704405 121.205403 
L 276.212185 120.297722 
L 276.719966 120.096015 
L 277.735527 119.147993 
L 278.243307 118.058776 
L 278.751088 118.805091 
L 279.258868 118.744579 
L 279.766649 118.220141 
L 280.27443 118.018434 
L 281.289991 116.485462 
L 281.797771 116.223243 
L 282.305552 116.384609 
L 282.813332 116.263585 
L 283.321113 115.638293 
L 283.828893 115.315562 
L 284.336674 115.355904 
L 284.844454 115.618123 
L 285.352235 115.355904 
L 285.860015 115.295392 
L 286.367796 115.093685 
L 286.875576 115.013002 
L 287.383357 115.214709 
L 287.891137 115.698805 
L 288.398918 115.113855 
L 288.906698 115.113855 
L 289.414479 115.497098 
L 289.922259 115.174367 
L 290.43004 114.468393 
L 290.93782 114.327199 
L 291.445601 114.488564 
L 291.953381 114.932319 
L 292.461162 115.134026 
L 292.968942 116.162731 
L 293.476723 115.658464 
L 294.492284 115.678635 
L 295.000064 115.799659 
L 296.015625 114.871807 
L 296.523406 115.194538 
L 297.031186 114.468393 
L 297.538967 113.399347 
L 298.046747 113.802761 
L 298.554528 113.116957 
L 299.062308 113.359006 
L 299.570089 112.471495 
L 300.077869 112.713544 
L 301.09343 111.906716 
L 301.601211 112.108423 
L 302.108991 111.765521 
L 302.616772 111.180572 
L 303.124552 111.019206 
L 303.632333 111.483132 
L 304.647894 110.514939 
L 305.663455 111.059547 
L 306.171235 110.878011 
L 306.679016 111.180572 
L 307.186796 110.958694 
L 308.202357 110.716646 
L 308.710138 111.120059 
L 309.217918 111.14023 
L 309.725699 110.938523 
L 310.233479 110.172037 
L 311.24904 109.990501 
L 311.756821 109.728282 
L 312.264602 108.981967 
L 312.772382 109.284527 
L 313.280163 108.739918 
L 313.787943 108.578553 
L 314.295724 107.993603 
L 314.803504 107.650701 
L 315.819065 107.267458 
L 316.326846 107.89275 
L 317.342407 107.146434 
L 317.850187 106.72285 
L 318.357968 106.642167 
L 318.865748 107.529677 
L 319.373529 107.3078 
L 319.881309 107.247288 
L 320.38909 106.924557 
L 320.89687 107.02541 
L 321.404651 106.72285 
L 321.912431 106.057217 
L 322.420212 106.299265 
L 322.927992 106.783362 
L 323.435773 106.601826 
L 324.451334 106.864045 
L 324.959114 107.32797 
L 325.466895 107.206946 
L 325.974675 108.215481 
L 326.482456 108.719748 
L 326.990236 108.578553 
L 327.498017 108.114627 
L 328.513578 107.872579 
L 329.021358 107.509507 
L 329.529139 107.287629 
L 330.036919 107.32797 
L 330.5447 106.743021 
L 331.05248 107.206946 
L 331.560261 107.186776 
L 332.068041 107.3078 
L 332.575822 106.843874 
L 333.083602 106.158071 
L 333.591383 105.936193 
L 334.099163 106.198412 
L 334.606944 106.258924 
L 335.114724 106.1379 
L 335.622505 107.02541 
L 336.130285 106.783362 
L 337.145846 106.783362 
L 339.176968 107.549848 
L 339.684749 107.489336 
L 340.192529 106.72285 
L 340.70031 106.299265 
L 341.20809 106.1379 
L 341.715871 105.391585 
L 342.223651 105.371414 
L 342.731432 104.705781 
L 343.239212 104.483904 
L 344.254773 102.930761 
L 345.270335 101.700349 
L 345.778115 101.841544 
L 346.285896 101.357447 
L 346.793676 101.296935 
L 347.301457 101.619666 
L 347.809237 101.075058 
L 348.317018 100.833009 
L 348.824798 101.034716 
L 349.332579 100.772497 
L 349.840359 100.248059 
L 350.34814 100.631303 
L 350.85592 100.449766 
L 351.363701 99.884987 
L 351.871481 99.542085 
L 352.887042 99.945499 
L 353.394823 99.118501 
L 354.410384 99.66311 
L 354.918164 99.400891 
L 355.425945 99.400891 
L 355.933725 100.26823 
L 356.441506 99.542085 
L 357.457067 99.239525 
L 357.964847 99.481573 
L 358.472628 100.348913 
L 359.488189 100.248059 
L 359.995969 99.582427 
L 360.50375 99.360549 
L 361.01153 98.432698 
L 361.519311 98.452868 
L 362.027091 98.150308 
L 362.534872 98.009113 
L 363.042652 98.412527 
L 363.550433 97.827577 
L 364.058213 97.585529 
L 365.073774 98.230991 
L 365.581555 98.715087 
L 366.089335 98.836111 
L 366.597116 98.634405 
L 367.104896 98.876453 
L 367.612677 98.977306 
L 368.120457 98.876453 
L 368.628238 99.562256 
L 369.643799 99.037818 
L 370.151579 99.017648 
L 371.16714 98.694917 
L 371.674921 98.916794 
L 372.182701 98.876453 
L 372.690482 99.199184 
L 373.198262 100.006011 
L 373.706043 99.985841 
L 374.213823 99.68328 
L 374.721604 99.68328 
L 375.229384 99.96567 
L 375.737165 99.158842 
L 377.260507 98.009113 
L 377.768287 98.230991 
L 378.276068 98.190649 
L 378.783848 99.905158 
L 379.291629 99.763963 
L 379.799409 99.38072 
L 380.30719 98.755429 
L 380.81497 98.614234 
L 381.322751 98.049455 
L 382.338312 98.049455 
L 382.846092 97.32331 
L 383.353873 97.282969 
L 383.861653 96.213922 
L 384.369434 96.012215 
L 384.877214 95.386924 
L 385.384995 95.971874 
L 386.908336 96.476141 
L 387.416117 96.45597 
L 387.923897 96.294605 
L 388.939458 94.438902 
L 389.447239 94.559926 
L 389.955019 93.954805 
L 390.4628 93.753098 
L 390.97058 93.147978 
L 391.986141 93.087466 
L 392.493922 92.482345 
L 393.509483 92.542857 
L 394.017263 91.514152 
L 394.525044 91.937737 
L 395.032824 91.594835 
L 395.540605 91.937737 
L 396.048385 91.917566 
L 396.556166 91.554494 
L 397.063946 91.473811 
L 397.571727 91.030056 
L 398.079507 90.142546 
L 398.587288 88.952475 
L 399.602849 88.387696 
L 400.110629 88.690256 
L 400.61841 88.165818 
L 402.141751 87.197625 
L 402.649532 87.217796 
L 403.157312 86.693358 
L 404.172873 85.140215 
L 404.680654 84.817484 
L 405.188434 85.341922 
L 405.696215 85.503288 
L 406.203995 85.483117 
L 406.711776 85.301581 
L 407.219556 84.877996 
L 407.727337 84.615777 
L 408.235117 85.039362 
L 409.250678 85.180557 
L 409.758459 84.97885 
L 410.26624 84.494753 
L 410.77402 83.627414 
L 411.281801 83.123147 
L 411.789581 83.163488 
L 412.297362 83.002123 
L 412.805142 83.466048 
L 413.312923 83.52656 
L 413.820703 84.071169 
L 414.328484 84.414071 
L 414.836264 83.849291 
L 415.344045 84.09134 
L 415.851825 83.667755 
L 416.359606 83.728267 
L 416.867386 83.546731 
L 417.375167 83.687926 
L 417.882947 84.010657 
L 418.390728 84.151852 
L 418.898508 84.414071 
L 419.406289 84.514924 
L 419.914069 84.313217 
L 420.42185 84.535095 
L 421.437411 84.272876 
L 421.945191 84.293046 
L 422.960752 83.647585 
L 423.468533 84.010657 
L 423.976313 83.829121 
L 424.484094 83.990486 
L 425.499655 82.901269 
L 426.007435 83.062635 
L 426.515216 82.881098 
L 427.022996 83.486219 
L 427.530777 83.324854 
L 428.038557 82.981952 
L 428.546338 82.800416 
L 429.054118 82.881098 
L 429.561899 82.518026 
L 430.069679 82.417173 
L 430.57746 81.75154 
L 431.08524 81.529662 
L 431.593021 81.045566 
L 432.100801 81.005225 
L 432.608582 80.843859 
L 433.116362 80.521128 
L 433.624143 79.41174 
L 434.131923 79.169692 
L 434.639704 79.210034 
L 435.147484 78.80662 
L 435.655265 79.008327 
L 436.670826 79.068839 
L 437.686387 78.725937 
L 438.194167 77.757744 
L 438.701948 77.293818 
L 439.209728 77.374501 
L 439.717509 77.656891 
L 440.73307 77.838427 
L 441.24085 78.262011 
L 442.256411 78.665425 
L 442.764192 78.604913 
L 443.271973 78.80662 
L 444.287534 77.777915 
L 444.795314 77.435013 
L 445.303095 76.587844 
L 446.318656 77.273648 
L 446.826436 77.293818 
L 447.841997 76.305455 
L 448.349778 76.507162 
L 448.857558 75.962553 
L 449.365339 75.841529 
L 450.3809 76.123918 
L 450.88868 76.204601 
L 451.396461 75.720505 
L 451.904241 75.659993 
L 452.919802 74.752312 
L 453.427583 75.236408 
L 453.935363 74.893507 
L 454.443144 74.893507 
L 454.950924 75.175896 
L 455.458705 75.196067 
L 455.966485 74.99436 
L 456.474266 75.095213 
L 456.982046 76.063406 
L 457.997607 76.063406 
L 458.505388 75.619651 
L 459.013168 75.760846 
L 459.520949 75.781017 
L 460.028729 76.083577 
L 460.53651 76.224772 
L 461.04429 76.043236 
L 461.552071 76.446649 
L 462.059851 76.527332 
L 463.075412 76.930746 
L 464.090973 76.76938 
L 464.598754 76.083577 
L 465.106534 75.982724 
L 465.614315 76.16426 
L 466.122095 75.256579 
L 466.629876 74.631288 
L 467.645437 74.348898 
L 468.153217 74.40941 
L 468.660998 73.965655 
L 469.168778 73.683265 
L 469.676559 73.178998 
L 470.184339 73.279852 
L 470.69212 73.945484 
L 471.1999 74.147191 
L 472.215461 72.997462 
L 472.723242 74.026167 
L 473.231022 74.066508 
L 473.738803 74.248045 
L 474.246583 74.671629 
L 474.754364 75.478457 
L 475.262145 75.155726 
L 475.769925 75.922212 
L 476.277706 75.659993 
L 477.293267 75.801188 
L 477.801047 75.57931 
L 478.308828 76.910575 
L 478.816608 76.729039 
L 479.324389 77.05177 
L 479.832169 77.011429 
L 481.355511 76.406308 
L 481.863291 76.950917 
L 482.371072 75.982724 
L 482.878852 76.063406 
L 483.894413 76.971087 
L 484.402194 77.172794 
L 484.909974 77.132453 
L 485.417755 76.668527 
L 485.925535 76.708868 
L 487.448877 76.103748 
L 488.464438 74.853165 
L 488.972218 75.538969 
L 489.479999 75.216238 
L 489.987779 75.88187 
L 490.49556 75.599481 
L 491.00334 75.538969 
L 491.511121 75.8617 
L 492.018901 76.46682 
L 493.542243 76.567674 
L 494.050023 76.567674 
L 495.065584 77.414842 
L 496.081145 77.757744 
L 496.588926 77.435013 
L 497.096706 78.100646 
L 497.604487 79.028497 
L 498.112267 77.999792 
L 498.620048 79.048668 
L 499.127828 79.573106 
L 499.635609 79.431911 
L 500.143389 79.048668 
L 500.65117 78.947815 
L 501.15895 78.443547 
L 501.666731 78.604913 
L 502.682292 79.310887 
L 503.190072 79.230204 
L 503.697853 78.947815 
L 504.205633 79.008327 
L 504.713414 79.552935 
L 506.744536 80.400104 
L 507.252316 80.077373 
L 507.760097 80.58164 
L 508.267878 80.642152 
L 508.775658 79.916008 
L 509.283439 80.077373 
L 509.791219 80.097544 
L 510.299 80.400104 
L 510.80678 80.258909 
L 511.314561 80.86403 
L 511.822341 81.650687 
L 512.330122 81.16659 
L 513.345683 81.045566 
L 513.853463 81.16659 
L 514.361244 80.783347 
L 514.869024 81.106078 
L 515.376805 80.743006 
L 515.884585 80.238739 
L 516.392366 80.158056 
L 516.900146 79.492423 
L 517.915707 79.69413 
L 518.423488 79.230204 
L 518.931268 79.10918 
L 519.439049 79.39157 
L 519.946829 79.129351 
L 520.96239 80.400104 
L 521.470171 80.783347 
L 521.977951 81.005225 
L 522.993512 79.230204 
L 523.501293 79.613447 
L 524.009073 78.665425 
L 524.516854 78.665425 
L 525.024634 78.52423 
L 525.532415 78.161158 
L 526.040195 78.967985 
L 526.547976 79.210034 
L 527.055756 78.52423 
L 527.563537 78.362865 
L 528.071317 77.777915 
L 528.579098 78.302353 
L 529.086878 77.414842 
L 530.102439 76.971087 
L 531.118 76.789551 
L 531.625781 76.365967 
L 532.133561 76.265113 
L 532.641342 76.365967 
L 533.149122 75.700334 
L 534.164683 76.285284 
L 534.672464 76.16426 
L 535.180244 76.567674 
L 535.688025 76.16426 
L 536.195805 76.063406 
L 536.703586 75.781017 
L 537.211366 75.155726 
L 537.719147 75.478457 
L 538.226927 75.236408 
L 538.734708 74.792653 
L 539.242488 74.873336 
L 539.750269 74.590946 
L 540.258049 74.732141 
L 541.273611 75.417944 
L 541.781391 74.812824 
L 542.289172 75.337262 
L 542.796952 75.075043 
L 543.304733 74.651458 
L 543.812513 75.518798 
L 544.320294 75.659993 
L 544.828074 75.438115 
L 545.335855 75.417944 
L 545.843635 75.075043 
L 546.351416 74.590946 
L 546.859196 73.259681 
L 547.366977 72.896609 
L 547.874757 73.279852 
L 548.382538 73.461388 
L 548.890318 72.694902 
L 549.398099 72.836097 
L 549.905879 72.069611 
L 550.92144 72.150293 
L 551.937001 71.585514 
L 552.952562 73.057974 
L 553.460343 73.683265 
L 553.968123 73.279852 
L 554.475904 73.844631 
L 554.983684 74.066508 
L 555.999245 72.997462 
L 556.507026 72.674731 
L 557.014806 72.63439 
L 557.014806 72.63439 
" style="fill:none;stroke:#1f77b4;stroke-linecap:square;stroke-width:1.5;"/>
   </g>
   <g id="patch_3">
    <path d="M 49.259688 298.677188 
L 49.259688 26.877187 
" style="fill:none;stroke:#000000;stroke-linecap:square;stroke-linejoin:miter;stroke-width:0.8;"/>
   </g>
   <g id="patch_4">
    <path d="M 607.259688 298.677188 
L 607.259688 26.877187 
" style="fill:none;stroke:#000000;stroke-linecap:square;stroke-linejoin:miter;stroke-width:0.8;"/>
   </g>
   <g id="patch_5">
    <path d="M 49.259688 298.677188 
L 607.259688 298.677188 
" style="fill:none;stroke:#000000;stroke-linecap:square;stroke-linejoin:miter;stroke-width:0.8;"/>
   </g>
   <g id="patch_6">
    <path d="M 49.259688 26.877187 
L 607.259688 26.877187 
" style="fill:none;stroke:#000000;stroke-linecap:square;stroke-linejoin:miter;stroke-width:0.8;"/>
   </g>
   <g id="text_16">
    <!-- Learning curve: Double DQN with a limit of 1000 episodes -->
    <g transform="translate(66.683125 20.877187)scale(0.18 -0.18)">
     <defs>
      <path d="M 9.8125 72.90625 
L 19.671875 72.90625 
L 19.671875 8.296875 
L 55.171875 8.296875 
L 55.171875 0 
L 9.8125 0 
z
" id="DejaVuSans-76"/>
      <path d="M 34.28125 27.484375 
Q 23.390625 27.484375 19.1875 25 
Q 14.984375 22.515625 14.984375 16.5 
Q 14.984375 11.71875 18.140625 8.90625 
Q 21.296875 6.109375 26.703125 6.109375 
Q 34.1875 6.109375 38.703125 11.40625 
Q 43.21875 16.703125 43.21875 25.484375 
L 43.21875 27.484375 
z
M 52.203125 31.203125 
L 52.203125 0 
L 43.21875 0 
L 43.21875 8.296875 
Q 40.140625 3.328125 35.546875 0.953125 
Q 30.953125 -1.421875 24.3125 -1.421875 
Q 15.921875 -1.421875 10.953125 3.296875 
Q 6 8.015625 6 15.921875 
Q 6 25.140625 12.171875 29.828125 
Q 18.359375 34.515625 30.609375 34.515625 
L 43.21875 34.515625 
L 43.21875 35.40625 
Q 43.21875 41.609375 39.140625 45 
Q 35.0625 48.390625 27.6875 48.390625 
Q 23 48.390625 18.546875 47.265625 
Q 14.109375 46.140625 10.015625 43.890625 
L 10.015625 52.203125 
Q 14.9375 54.109375 19.578125 55.046875 
Q 24.21875 56 28.609375 56 
Q 40.484375 56 46.34375 49.84375 
Q 52.203125 43.703125 52.203125 31.203125 
z
" id="DejaVuSans-97"/>
      <path d="M 54.890625 33.015625 
L 54.890625 0 
L 45.90625 0 
L 45.90625 32.71875 
Q 45.90625 40.484375 42.875 44.328125 
Q 39.84375 48.1875 33.796875 48.1875 
Q 26.515625 48.1875 22.3125 43.546875 
Q 18.109375 38.921875 18.109375 30.90625 
L 18.109375 0 
L 9.078125 0 
L 9.078125 54.6875 
L 18.109375 54.6875 
L 18.109375 46.1875 
Q 21.34375 51.125 25.703125 53.5625 
Q 30.078125 56 35.796875 56 
Q 45.21875 56 50.046875 50.171875 
Q 54.890625 44.34375 54.890625 33.015625 
z
" id="DejaVuSans-110"/>
      <path d="M 45.40625 27.984375 
Q 45.40625 37.75 41.375 43.109375 
Q 37.359375 48.484375 30.078125 48.484375 
Q 22.859375 48.484375 18.828125 43.109375 
Q 14.796875 37.75 14.796875 27.984375 
Q 14.796875 18.265625 18.828125 12.890625 
Q 22.859375 7.515625 30.078125 7.515625 
Q 37.359375 7.515625 41.375 12.890625 
Q 45.40625 18.265625 45.40625 27.984375 
z
M 54.390625 6.78125 
Q 54.390625 -7.171875 48.1875 -13.984375 
Q 42 -20.796875 29.203125 -20.796875 
Q 24.46875 -20.796875 20.265625 -20.09375 
Q 16.0625 -19.390625 12.109375 -17.921875 
L 12.109375 -9.1875 
Q 16.0625 -11.328125 19.921875 -12.34375 
Q 23.78125 -13.375 27.78125 -13.375 
Q 36.625 -13.375 41.015625 -8.765625 
Q 45.40625 -4.15625 45.40625 5.171875 
L 45.40625 9.625 
Q 42.625 4.78125 38.28125 2.390625 
Q 33.9375 0 27.875 0 
Q 17.828125 0 11.671875 7.65625 
Q 5.515625 15.328125 5.515625 27.984375 
Q 5.515625 40.671875 11.671875 48.328125 
Q 17.828125 56 27.875 56 
Q 33.9375 56 38.28125 53.609375 
Q 42.625 51.21875 45.40625 46.390625 
L 45.40625 54.6875 
L 54.390625 54.6875 
z
" id="DejaVuSans-103"/>
      <path id="DejaVuSans-32"/>
      <path d="M 8.5 21.578125 
L 8.5 54.6875 
L 17.484375 54.6875 
L 17.484375 21.921875 
Q 17.484375 14.15625 20.5 10.265625 
Q 23.53125 6.390625 29.59375 6.390625 
Q 36.859375 6.390625 41.078125 11.03125 
Q 45.3125 15.671875 45.3125 23.6875 
L 45.3125 54.6875 
L 54.296875 54.6875 
L 54.296875 0 
L 45.3125 0 
L 45.3125 8.40625 
Q 42.046875 3.421875 37.71875 1 
Q 33.40625 -1.421875 27.6875 -1.421875 
Q 18.265625 -1.421875 13.375 4.4375 
Q 8.5 10.296875 8.5 21.578125 
z
M 31.109375 56 
z
" id="DejaVuSans-117"/>
      <path d="M 2.984375 54.6875 
L 12.5 54.6875 
L 29.59375 8.796875 
L 46.6875 54.6875 
L 56.203125 54.6875 
L 35.6875 0 
L 23.484375 0 
z
" id="DejaVuSans-118"/>
      <path d="M 11.71875 12.40625 
L 22.015625 12.40625 
L 22.015625 0 
L 11.71875 0 
z
M 11.71875 51.703125 
L 22.015625 51.703125 
L 22.015625 39.3125 
L 11.71875 39.3125 
z
" id="DejaVuSans-58"/>
      <path d="M 19.671875 64.796875 
L 19.671875 8.109375 
L 31.59375 8.109375 
Q 46.6875 8.109375 53.6875 14.9375 
Q 60.6875 21.78125 60.6875 36.53125 
Q 60.6875 51.171875 53.6875 57.984375 
Q 46.6875 64.796875 31.59375 64.796875 
z
M 9.8125 72.90625 
L 30.078125 72.90625 
Q 51.265625 72.90625 61.171875 64.09375 
Q 71.09375 55.28125 71.09375 36.53125 
Q 71.09375 17.671875 61.125 8.828125 
Q 51.171875 0 30.078125 0 
L 9.8125 0 
z
" id="DejaVuSans-68"/>
      <path d="M 48.6875 27.296875 
Q 48.6875 37.203125 44.609375 42.84375 
Q 40.53125 48.484375 33.40625 48.484375 
Q 26.265625 48.484375 22.1875 42.84375 
Q 18.109375 37.203125 18.109375 27.296875 
Q 18.109375 17.390625 22.1875 11.75 
Q 26.265625 6.109375 33.40625 6.109375 
Q 40.53125 6.109375 44.609375 11.75 
Q 48.6875 17.390625 48.6875 27.296875 
z
M 18.109375 46.390625 
Q 20.953125 51.265625 25.265625 53.625 
Q 29.59375 56 35.59375 56 
Q 45.5625 56 51.78125 48.09375 
Q 58.015625 40.1875 58.015625 27.296875 
Q 58.015625 14.40625 51.78125 6.484375 
Q 45.5625 -1.421875 35.59375 -1.421875 
Q 29.59375 -1.421875 25.265625 0.953125 
Q 20.953125 3.328125 18.109375 8.203125 
L 18.109375 0 
L 9.078125 0 
L 9.078125 75.984375 
L 18.109375 75.984375 
z
" id="DejaVuSans-98"/>
      <path d="M 9.421875 75.984375 
L 18.40625 75.984375 
L 18.40625 0 
L 9.421875 0 
z
" id="DejaVuSans-108"/>
      <path d="M 39.40625 66.21875 
Q 28.65625 66.21875 22.328125 58.203125 
Q 16.015625 50.203125 16.015625 36.375 
Q 16.015625 22.609375 22.328125 14.59375 
Q 28.65625 6.59375 39.40625 6.59375 
Q 50.140625 6.59375 56.421875 14.59375 
Q 62.703125 22.609375 62.703125 36.375 
Q 62.703125 50.203125 56.421875 58.203125 
Q 50.140625 66.21875 39.40625 66.21875 
z
M 53.21875 1.3125 
L 66.21875 -12.890625 
L 54.296875 -12.890625 
L 43.5 -1.21875 
Q 41.890625 -1.3125 41.03125 -1.359375 
Q 40.1875 -1.421875 39.40625 -1.421875 
Q 24.03125 -1.421875 14.8125 8.859375 
Q 5.609375 19.140625 5.609375 36.375 
Q 5.609375 53.65625 14.8125 63.9375 
Q 24.03125 74.21875 39.40625 74.21875 
Q 54.734375 74.21875 63.90625 63.9375 
Q 73.09375 53.65625 73.09375 36.375 
Q 73.09375 23.6875 67.984375 14.640625 
Q 62.890625 5.609375 53.21875 1.3125 
z
" id="DejaVuSans-81"/>
      <path d="M 9.8125 72.90625 
L 23.09375 72.90625 
L 55.421875 11.921875 
L 55.421875 72.90625 
L 64.984375 72.90625 
L 64.984375 0 
L 51.703125 0 
L 19.390625 60.984375 
L 19.390625 0 
L 9.8125 0 
z
" id="DejaVuSans-78"/>
      <path d="M 4.203125 54.6875 
L 13.1875 54.6875 
L 24.421875 12.015625 
L 35.59375 54.6875 
L 46.1875 54.6875 
L 57.421875 12.015625 
L 68.609375 54.6875 
L 77.59375 54.6875 
L 63.28125 0 
L 52.6875 0 
L 40.921875 44.828125 
L 29.109375 0 
L 18.5 0 
z
" id="DejaVuSans-119"/>
      <path d="M 18.3125 70.21875 
L 18.3125 54.6875 
L 36.8125 54.6875 
L 36.8125 47.703125 
L 18.3125 47.703125 
L 18.3125 18.015625 
Q 18.3125 11.328125 20.140625 9.421875 
Q 21.96875 7.515625 27.59375 7.515625 
L 36.8125 7.515625 
L 36.8125 0 
L 27.59375 0 
Q 17.1875 0 13.234375 3.875 
Q 9.28125 7.765625 9.28125 18.015625 
L 9.28125 47.703125 
L 2.6875 47.703125 
L 2.6875 54.6875 
L 9.28125 54.6875 
L 9.28125 70.21875 
z
" id="DejaVuSans-116"/>
      <path d="M 54.890625 33.015625 
L 54.890625 0 
L 45.90625 0 
L 45.90625 32.71875 
Q 45.90625 40.484375 42.875 44.328125 
Q 39.84375 48.1875 33.796875 48.1875 
Q 26.515625 48.1875 22.3125 43.546875 
Q 18.109375 38.921875 18.109375 30.90625 
L 18.109375 0 
L 9.078125 0 
L 9.078125 75.984375 
L 18.109375 75.984375 
L 18.109375 46.1875 
Q 21.34375 51.125 25.703125 53.5625 
Q 30.078125 56 35.796875 56 
Q 45.21875 56 50.046875 50.171875 
Q 54.890625 44.34375 54.890625 33.015625 
z
" id="DejaVuSans-104"/>
      <path d="M 52 44.1875 
Q 55.375 50.25 60.0625 53.125 
Q 64.75 56 71.09375 56 
Q 79.640625 56 84.28125 50.015625 
Q 88.921875 44.046875 88.921875 33.015625 
L 88.921875 0 
L 79.890625 0 
L 79.890625 32.71875 
Q 79.890625 40.578125 77.09375 44.375 
Q 74.3125 48.1875 68.609375 48.1875 
Q 61.625 48.1875 57.5625 43.546875 
Q 53.515625 38.921875 53.515625 30.90625 
L 53.515625 0 
L 44.484375 0 
L 44.484375 32.71875 
Q 44.484375 40.625 41.703125 44.40625 
Q 38.921875 48.1875 33.109375 48.1875 
Q 26.21875 48.1875 22.15625 43.53125 
Q 18.109375 38.875 18.109375 30.90625 
L 18.109375 0 
L 9.078125 0 
L 9.078125 54.6875 
L 18.109375 54.6875 
L 18.109375 46.1875 
Q 21.1875 51.21875 25.484375 53.609375 
Q 29.78125 56 35.6875 56 
Q 41.65625 56 45.828125 52.96875 
Q 50 49.953125 52 44.1875 
z
" id="DejaVuSans-109"/>
      <path d="M 37.109375 75.984375 
L 37.109375 68.5 
L 28.515625 68.5 
Q 23.6875 68.5 21.796875 66.546875 
Q 19.921875 64.59375 19.921875 59.515625 
L 19.921875 54.6875 
L 34.71875 54.6875 
L 34.71875 47.703125 
L 19.921875 47.703125 
L 19.921875 0 
L 10.890625 0 
L 10.890625 47.703125 
L 2.296875 47.703125 
L 2.296875 54.6875 
L 10.890625 54.6875 
L 10.890625 58.5 
Q 10.890625 67.625 15.140625 71.796875 
Q 19.390625 75.984375 28.609375 75.984375 
z
" id="DejaVuSans-102"/>
     </defs>
     <use xlink:href="#DejaVuSans-76"/>
     <use x="53.962891" xlink:href="#DejaVuSans-101"/>
     <use x="115.486328" xlink:href="#DejaVuSans-97"/>
     <use x="176.765625" xlink:href="#DejaVuSans-114"/>
     <use x="216.128906" xlink:href="#DejaVuSans-110"/>
     <use x="279.507812" xlink:href="#DejaVuSans-105"/>
     <use x="307.291016" xlink:href="#DejaVuSans-110"/>
     <use x="370.669922" xlink:href="#DejaVuSans-103"/>
     <use x="434.146484" xlink:href="#DejaVuSans-32"/>
     <use x="465.933594" xlink:href="#DejaVuSans-99"/>
     <use x="520.914062" xlink:href="#DejaVuSans-117"/>
     <use x="584.292969" xlink:href="#DejaVuSans-114"/>
     <use x="625.40625" xlink:href="#DejaVuSans-118"/>
     <use x="684.585938" xlink:href="#DejaVuSans-101"/>
     <use x="746.109375" xlink:href="#DejaVuSans-58"/>
     <use x="779.800781" xlink:href="#DejaVuSans-32"/>
     <use x="811.587891" xlink:href="#DejaVuSans-68"/>
     <use x="888.589844" xlink:href="#DejaVuSans-111"/>
     <use x="949.771484" xlink:href="#DejaVuSans-117"/>
     <use x="1013.150391" xlink:href="#DejaVuSans-98"/>
     <use x="1076.626953" xlink:href="#DejaVuSans-108"/>
     <use x="1104.410156" xlink:href="#DejaVuSans-101"/>
     <use x="1165.933594" xlink:href="#DejaVuSans-32"/>
     <use x="1197.720703" xlink:href="#DejaVuSans-68"/>
     <use x="1274.722656" xlink:href="#DejaVuSans-81"/>
     <use x="1353.433594" xlink:href="#DejaVuSans-78"/>
     <use x="1428.238281" xlink:href="#DejaVuSans-32"/>
     <use x="1460.025391" xlink:href="#DejaVuSans-119"/>
     <use x="1541.8125" xlink:href="#DejaVuSans-105"/>
     <use x="1569.595703" xlink:href="#DejaVuSans-116"/>
     <use x="1608.804688" xlink:href="#DejaVuSans-104"/>
     <use x="1672.183594" xlink:href="#DejaVuSans-32"/>
     <use x="1703.970703" xlink:href="#DejaVuSans-97"/>
     <use x="1765.25" xlink:href="#DejaVuSans-32"/>
     <use x="1797.037109" xlink:href="#DejaVuSans-108"/>
     <use x="1824.820312" xlink:href="#DejaVuSans-105"/>
     <use x="1852.603516" xlink:href="#DejaVuSans-109"/>
     <use x="1950.015625" xlink:href="#DejaVuSans-105"/>
     <use x="1977.798828" xlink:href="#DejaVuSans-116"/>
     <use x="2017.007812" xlink:href="#DejaVuSans-32"/>
     <use x="2048.794922" xlink:href="#DejaVuSans-111"/>
     <use x="2109.976562" xlink:href="#DejaVuSans-102"/>
     <use x="2145.181641" xlink:href="#DejaVuSans-32"/>
     <use x="2176.96875" xlink:href="#DejaVuSans-49"/>
     <use x="2240.591797" xlink:href="#DejaVuSans-48"/>
     <use x="2304.214844" xlink:href="#DejaVuSans-48"/>
     <use x="2367.837891" xlink:href="#DejaVuSans-48"/>
     <use x="2431.460938" xlink:href="#DejaVuSans-32"/>
     <use x="2463.248047" xlink:href="#DejaVuSans-101"/>
     <use x="2524.771484" xlink:href="#DejaVuSans-112"/>
     <use x="2588.248047" xlink:href="#DejaVuSans-105"/>
     <use x="2616.03125" xlink:href="#DejaVuSans-115"/>
     <use x="2668.130859" xlink:href="#DejaVuSans-111"/>
     <use x="2729.3125" xlink:href="#DejaVuSans-100"/>
     <use x="2792.789062" xlink:href="#DejaVuSans-101"/>
     <use x="2854.3125" xlink:href="#DejaVuSans-115"/>
    </g>
   </g>
   <g id="legend_1">
    <g id="patch_7">
     <path d="M 59.759688 82.911563 
L 275.965937 82.911563 
Q 278.965937 82.911563 278.965937 79.911563 
L 278.965937 37.377187 
Q 278.965937 34.377187 275.965937 34.377187 
L 59.759688 34.377187 
Q 56.759688 34.377187 56.759688 37.377187 
L 56.759688 79.911563 
Q 56.759688 82.911563 59.759688 82.911563 
z
" style="fill:#ffffff;opacity:0.8;stroke:#cccccc;stroke-linejoin:miter;"/>
    </g>
    <g id="line2d_16">
     <path d="M 62.759688 46.524844 
L 92.759688 46.524844 
" style="fill:none;stroke:#1f77b4;stroke-linecap:square;stroke-width:1.5;"/>
    </g>
    <g id="line2d_17"/>
    <g id="text_17">
     <!-- Moving Average N=50 -->
     <g transform="translate(104.759688 51.774844)scale(0.15 -0.15)">
      <defs>
       <path d="M 9.8125 72.90625 
L 24.515625 72.90625 
L 43.109375 23.296875 
L 61.8125 72.90625 
L 76.515625 72.90625 
L 76.515625 0 
L 66.890625 0 
L 66.890625 64.015625 
L 48.09375 14.015625 
L 38.1875 14.015625 
L 19.390625 64.015625 
L 19.390625 0 
L 9.8125 0 
z
" id="DejaVuSans-77"/>
       <path d="M 34.1875 63.1875 
L 20.796875 26.90625 
L 47.609375 26.90625 
z
M 28.609375 72.90625 
L 39.796875 72.90625 
L 67.578125 0 
L 57.328125 0 
L 50.6875 18.703125 
L 17.828125 18.703125 
L 11.1875 0 
L 0.78125 0 
z
" id="DejaVuSans-65"/>
       <path d="M 10.59375 45.40625 
L 73.1875 45.40625 
L 73.1875 37.203125 
L 10.59375 37.203125 
z
M 10.59375 25.484375 
L 73.1875 25.484375 
L 73.1875 17.1875 
L 10.59375 17.1875 
z
" id="DejaVuSans-61"/>
       <path d="M 10.796875 72.90625 
L 49.515625 72.90625 
L 49.515625 64.59375 
L 19.828125 64.59375 
L 19.828125 46.734375 
Q 21.96875 47.46875 24.109375 47.828125 
Q 26.265625 48.1875 28.421875 48.1875 
Q 40.625 48.1875 47.75 41.5 
Q 54.890625 34.8125 54.890625 23.390625 
Q 54.890625 11.625 47.5625 5.09375 
Q 40.234375 -1.421875 26.90625 -1.421875 
Q 22.3125 -1.421875 17.546875 -0.640625 
Q 12.796875 0.140625 7.71875 1.703125 
L 7.71875 11.625 
Q 12.109375 9.234375 16.796875 8.0625 
Q 21.484375 6.890625 26.703125 6.890625 
Q 35.15625 6.890625 40.078125 11.328125 
Q 45.015625 15.765625 45.015625 23.390625 
Q 45.015625 31 40.078125 35.4375 
Q 35.15625 39.890625 26.703125 39.890625 
Q 22.75 39.890625 18.8125 39.015625 
Q 14.890625 38.140625 10.796875 36.28125 
z
" id="DejaVuSans-53"/>
      </defs>
      <use xlink:href="#DejaVuSans-77"/>
      <use x="86.279297" xlink:href="#DejaVuSans-111"/>
      <use x="147.460938" xlink:href="#DejaVuSans-118"/>
      <use x="206.640625" xlink:href="#DejaVuSans-105"/>
      <use x="234.423828" xlink:href="#DejaVuSans-110"/>
      <use x="297.802734" xlink:href="#DejaVuSans-103"/>
      <use x="361.279297" xlink:href="#DejaVuSans-32"/>
      <use x="393.066406" xlink:href="#DejaVuSans-65"/>
      <use x="455.599609" xlink:href="#DejaVuSans-118"/>
      <use x="514.779297" xlink:href="#DejaVuSans-101"/>
      <use x="576.302734" xlink:href="#DejaVuSans-114"/>
      <use x="617.416016" xlink:href="#DejaVuSans-97"/>
      <use x="678.695312" xlink:href="#DejaVuSans-103"/>
      <use x="742.171875" xlink:href="#DejaVuSans-101"/>
      <use x="803.695312" xlink:href="#DejaVuSans-32"/>
      <use x="835.482422" xlink:href="#DejaVuSans-78"/>
      <use x="910.287109" xlink:href="#DejaVuSans-61"/>
      <use x="994.076172" xlink:href="#DejaVuSans-53"/>
      <use x="1057.699219" xlink:href="#DejaVuSans-48"/>
     </g>
    </g>
    <g id="line2d_18">
     <path d="M 62.759688 68.542031 
L 92.759688 68.542031 
" style="fill:none;stroke:#ff7f0e;stroke-linecap:square;stroke-opacity:0.5;stroke-width:1.5;"/>
    </g>
    <g id="line2d_19"/>
    <g id="text_18">
     <!-- Mean Score -->
     <g transform="translate(104.759688 73.792031)scale(0.15 -0.15)">
      <use xlink:href="#DejaVuSans-77"/>
      <use x="86.279297" xlink:href="#DejaVuSans-101"/>
      <use x="147.802734" xlink:href="#DejaVuSans-97"/>
      <use x="209.082031" xlink:href="#DejaVuSans-110"/>
      <use x="272.460938" xlink:href="#DejaVuSans-32"/>
      <use x="304.248047" xlink:href="#DejaVuSans-83"/>
      <use x="367.724609" xlink:href="#DejaVuSans-99"/>
      <use x="422.705078" xlink:href="#DejaVuSans-111"/>
      <use x="483.886719" xlink:href="#DejaVuSans-114"/>
      <use x="522.75" xlink:href="#DejaVuSans-101"/>
     </g>
    </g>
   </g>
  </g>
 </g>
 <defs>
  <clipPath id="p507f9ffd37">
   <rect height="271.8" width="558" x="49.259688" y="26.877187"/>
  </clipPath>
 </defs>
</svg>
